<?xml version="1.0" encoding="UTF-8"?>
<svg xmlns="http://www.w3.org/2000/svg" xmlns:xlink="http://www.w3.org/1999/xlink" width="135.62pt" height="135.62pt" viewBox="0 0 135.62 135.62" version="1.1">
<g id="surface1">
<path style=" stroke:none;fill-rule:nonzero;fill:rgb(100%,100%,100%);fill-opacity:1;" d="M 135.617188 135.621094 L 0 135.621094 L 0 0.00390625 L 135.617188 0.00390625 L 135.617188 135.621094 "/>
<path style=" stroke:none;fill-rule:nonzero;fill:rgb(88.999939%,9.399414%,21.598816%);fill-opacity:1;" d="M 67.84375 135.296875 C 30.617188 135.292969 0.328125 105.003906 0.320313 67.777344 C 0.328125 30.582031 30.59375 0.324219 67.789063 0.324219 L 67.898438 0.324219 C 85.910156 0.324219 102.84375 7.339844 115.574219 20.085938 C 128.308594 32.828125 135.3125 49.765625 135.296875 67.777344 C 135.3125 85.808594 128.300781 102.765625 115.554688 115.519531 C 102.8125 128.273438 85.867188 135.296875 67.84375 135.296875 "/>
<path style=" stroke:none;fill-rule:nonzero;fill:rgb(61.599731%,62.399292%,63.499451%);fill-opacity:1;" d="M 67.902344 0.644531 C 104.964844 0.644531 135.007813 30.714844 134.976563 67.777344 C 135.007813 104.894531 104.933594 134.96875 67.84375 134.976563 C 30.722656 134.96875 0.648438 104.894531 0.640625 67.777344 C 0.648438 30.714844 30.695313 0.648438 67.789063 0.644531 L 67.902344 0.644531 M 67.902344 0.00390625 L 67.789063 0.00390625 C 30.417969 0.0078125 0.0078125 30.410156 0 67.777344 C 0.0078125 105.175781 30.441406 135.613281 67.84375 135.621094 C 85.957031 135.617188 102.980469 128.558594 115.78125 115.75 C 128.589844 102.933594 135.632813 85.894531 135.617188 67.777344 C 135.632813 49.679688 128.597656 32.660156 115.804688 19.855469 C 103.011719 7.054688 86 0.00390625 67.902344 0.00390625 "/>
<path style=" stroke:none;fill-rule:nonzero;fill:rgb(90.19928%,90.59906%,90.99884%);fill-opacity:1;" d="M 67.914063 120.214844 C 38.9375 120.199219 15.347656 96.609375 15.332031 67.636719 C 15.347656 38.683594 38.933594 15.128906 67.910156 15.128906 C 81.929688 15.125 95.117188 20.589844 105.039063 30.511719 C 114.957031 40.429688 120.421875 53.617188 120.421875 67.636719 C 120.421875 96.609375 96.867188 120.199219 67.914063 120.214844 "/>
<path style=" stroke:none;fill-rule:nonzero;fill:rgb(61.599731%,62.399292%,63.499451%);fill-opacity:1;" d="M 67.914063 15.449219 C 96.722656 15.449219 120.101563 38.824219 120.105469 67.636719 C 120.101563 96.496094 96.722656 119.878906 67.914063 119.894531 C 39.046875 119.878906 15.667969 96.496094 15.652344 67.636719 C 15.667969 38.824219 39.046875 15.449219 67.914063 15.449219 M 67.917969 14.808594 L 67.914063 14.808594 C 38.761719 14.804688 15.027344 38.503906 15.011719 67.636719 C 15.027344 96.789063 38.761719 120.523438 67.914063 120.539063 C 97.042969 120.523438 120.742188 96.789063 120.746094 67.636719 C 120.742188 53.53125 115.246094 40.265625 105.265625 30.285156 C 95.285156 20.304688 82.023438 14.808594 67.917969 14.808594 "/>
<path style=" stroke:none;fill-rule:nonzero;fill:rgb(88.999939%,9.399414%,21.598816%);fill-opacity:1;" d="M 67.875 109.871094 L 67.808594 109.863281 C 67.492188 109.828125 36.203125 105.789063 36.25 67.777344 L 36.25 36.183594 L 99.433594 36.183594 L 99.433594 67.777344 C 99.421875 87.117188 86.46875 104.421875 67.9375 109.851563 L 67.875 109.871094 "/>
<path style=" stroke:none;fill-rule:nonzero;fill:rgb(100%,100%,100%);fill-opacity:1;" d="M 99.117188 36.503906 L 99.117188 67.777344 C 99.097656 87.5625 85.902344 104.25 67.84375 109.546875 C 67.84375 109.546875 36.523438 105.945313 36.570313 67.777344 L 36.570313 36.503906 L 99.117188 36.503906 M 99.761719 35.863281 L 35.925781 35.863281 L 35.925781 67.777344 C 35.902344 87.765625 44.550781 98.230469 51.8125 103.492188 C 59.683594 109.199219 67.445313 110.148438 67.773438 110.183594 L 67.902344 110.199219 L 68.027344 110.160156 C 76.992188 107.53125 85.066406 101.964844 90.757813 94.484375 C 96.636719 86.753906 99.75 77.519531 99.761719 67.777344 L 99.761719 35.863281 "/>
<path style="fill:none;stroke-width:4.02;stroke-linecap:butt;stroke-linejoin:miter;stroke:rgb(100%,100%,100%);stroke-opacity:1;stroke-miterlimit:3.864;" d="M 679.765625 565.184375 L 679.765625 645.067188 " transform="matrix(0.1,0,0,-0.1,0,135.62)"/>
<path style="fill:none;stroke-width:4.02;stroke-linecap:butt;stroke-linejoin:miter;stroke:rgb(100%,100%,100%);stroke-opacity:1;stroke-miterlimit:5.759;" d="M 688.867188 565.184375 L 725.703125 631.864063 L 725.703125 583.23125 " transform="matrix(0.1,0,0,-0.1,0,135.62)"/>
<path style="fill:none;stroke-width:4.02;stroke-linecap:butt;stroke-linejoin:miter;stroke:rgb(100%,100%,100%);stroke-opacity:1;stroke-miterlimit:3.864;" d="M 661.757813 561.66875 L 579.0625 624.246875 L 579.0625 554.051563 M 697.1875 562.371875 L 779.21875 624.246875 L 779.21875 554.051563 " transform="matrix(0.1,0,0,-0.1,0,135.62)"/>
<path style="fill:none;stroke-width:4.02;stroke-linecap:butt;stroke-linejoin:miter;stroke:rgb(100%,100%,100%);stroke-opacity:1;stroke-miterlimit:5.759;" d="M 670.820313 565.184375 L 633.945313 631.864063 L 633.945313 582.567188 " transform="matrix(0.1,0,0,-0.1,0,135.62)"/>
<path style=" stroke:none;fill-rule:nonzero;fill:rgb(100%,100%,100%);fill-opacity:1;" d="M 69.578125 98.355469 C 69.570313 98.792969 68.867188 99.152344 67.976563 99.1875 C 67.097656 99.152344 66.4375 98.792969 66.453125 98.355469 L 66.453125 79.867188 C 66.4375 80.308594 67.097656 80.671875 67.976563 80.707031 C 68.867188 80.671875 69.570313 80.308594 69.578125 79.867188 L 69.578125 98.355469 "/>
<path style=" stroke:none;fill-rule:nonzero;fill:rgb(100%,100%,100%);fill-opacity:1;" d="M 65.410156 98.355469 L 65.410156 79.796875 L 54.847656 75.421875 L 54.847656 92.933594 L 65.410156 98.355469 "/>
<path style=" stroke:none;fill-rule:nonzero;fill:rgb(100%,100%,100%);fill-opacity:1;" d="M 70.628906 98.355469 L 70.628906 79.796875 L 81.1875 75.421875 L 81.1875 92.933594 L 70.628906 98.355469 "/>
<path style=" stroke:none;fill-rule:nonzero;fill:rgb(100%,100%,100%);fill-opacity:1;" d="M 43.308594 60.410156 L 61.660156 60.410156 L 61.660156 62.011719 L 43.308594 62.011719 L 43.308594 60.410156 "/>
<path style=" stroke:none;fill-rule:nonzero;fill:rgb(100%,100%,100%);fill-opacity:1;" d="M 46.929688 63.121094 L 57.90625 63.121094 L 54.710938 66.390625 L 50.117188 66.390625 L 46.929688 63.121094 "/>
<path style=" stroke:none;fill-rule:nonzero;fill:rgb(100%,100%,100%);fill-opacity:1;" d="M 50.117188 66.390625 L 54.710938 66.390625 L 54.710938 67.988281 L 50.117188 67.988281 L 50.117188 66.390625 "/>
<path style=" stroke:none;fill-rule:nonzero;fill:rgb(100%,100%,100%);fill-opacity:1;" d="M 51.441406 39.5625 C 52.035156 40.785156 52.289063 41.535156 52.554688 42.898438 C 53.273438 46.769531 50.328125 48.539063 50.402344 52.835938 C 50.429688 55.785156 51.1875 57.371094 52.484375 59.230469 C 52.222656 57.800781 52.144531 56.988281 52.136719 55.546875 C 52.164063 52.722656 53.398438 51.25 53.597656 48.386719 C 54.128906 50.882813 54.351563 52.527344 53.949219 55.128906 C 53.71875 56.652344 53.480469 57.515625 52.90625 58.953125 C 54.953125 56.527344 55.71875 54.988281 56.097656 51.445313 C 56.550781 46.734375 55.167969 42.859375 51.441406 39.5625 "/>
<path style=" stroke:none;fill-rule:nonzero;fill:rgb(100%,100%,100%);fill-opacity:1;" d="M 54.78125 41.714844 C 56.265625 43.769531 56.980469 45.449219 57.28125 47.695313 C 57.695313 51.207031 56.980469 54.039063 55.890625 56.308594 C 58.808594 53.441406 60.378906 48.757813 58.53125 45.332031 C 57.628906 43.6875 56.167969 42.484375 54.78125 41.714844 "/>
<path style=" stroke:none;fill-rule:nonzero;fill:rgb(100%,100%,100%);fill-opacity:1;" d="M 51.234375 41.996094 C 51.699219 43.363281 51.613281 44.226563 51.441406 45.054688 C 50.992188 47.253906 49.082031 49.789063 49.148438 52.835938 C 49.207031 54.902344 49.527344 56.941406 51.375 59.230469 C 49.851563 58.488281 48.503906 57.460938 48.039063 55.546875 C 47.574219 53.761719 47.386719 52.425781 48.175781 50.679688 C 46.632813 52.34375 46.4375 54.128906 46.785156 55.476563 C 47.101563 56.773438 47.960938 57.890625 49.5 58.738281 C 47.191406 58.25 45.253906 56.621094 45.046875 54.503906 C 44.609375 48.910156 50.582031 47.8125 51.234375 41.996094 "/>
<path style=" stroke:none;fill-rule:nonzero;fill:rgb(100%,100%,100%);fill-opacity:1;" d="M 80.773438 58.464844 C 80.535156 59.414063 79.878906 59.371094 79.242188 58.742188 C 78.226563 57.636719 75.328125 56.238281 73.128906 56.242188 L 72.917969 56.242188 C 72.9375 56.238281 74.230469 56.703125 74.65625 56.867188 C 75.15625 57.042969 75.796875 57.296875 75.769531 57.285156 C 75.121094 57.402344 74.671875 57.507813 74.308594 57.703125 C 74.203125 57.804688 74.335938 57.804688 74.238281 57.910156 C 75.011719 57.675781 76.28125 57.742188 77.015625 58.046875 C 77.511719 58.3125 78.839844 59.984375 79.308594 61.246094 C 79.75 62.546875 79.898438 64.046875 80.144531 65.277344 L 80.773438 58.464844 "/>
<path style=" stroke:none;fill-rule:nonzero;fill:rgb(100%,100%,100%);fill-opacity:1;" d="M 79.863281 67.847656 C 79.457031 64.195313 80.46875 53.808594 83.34375 45.890625 C 83.429688 45.703125 83.773438 45.597656 83.898438 45.398438 C 82.207031 51.179688 81.402344 65.167969 84.664063 67.914063 C 84.128906 67.914063 79.878906 67.8125 79.863281 67.847656 "/>
<path style=" stroke:none;fill-rule:nonzero;fill:rgb(100%,100%,100%);fill-opacity:1;" d="M 73.402344 56.378906 C 73.128906 55.730469 72.367188 54.039063 71.390625 53.597656 C 70.445313 53.128906 69.277344 53.425781 68.332031 52.699219 C 68.347656 53.761719 68.855469 55.414063 70 55.894531 C 71.015625 56.429688 72.109375 56.621094 73.402344 56.378906 "/>
<path style=" stroke:none;fill-rule:nonzero;fill:rgb(100%,100%,100%);fill-opacity:1;" d="M 75.972656 56.9375 C 76.703125 56.195313 77.511719 57.085938 78.617188 55.960938 C 79.21875 55.371094 79.203125 54.1875 79.863281 53.535156 C 78.585938 53.46875 77.890625 53.46875 76.808594 54.089844 C 75.878906 54.738281 75.644531 56.152344 75.972656 56.9375 "/>
<path style=" stroke:none;fill-rule:nonzero;fill:rgb(100%,100%,100%);fill-opacity:1;" d="M 74.378906 57.632813 C 71.902344 56.914063 70.800781 57.738281 70.207031 58.1875 C 69.65625 58.546875 68.578125 59.878906 68.398438 61.382813 C 69.257813 60.109375 71.113281 60.449219 72.222656 60.410156 C 73.128906 60.40625 74.042969 59.539063 74.167969 59.019531 C 74.378906 58.589844 74.273438 57.972656 74.378906 57.632813 "/>
<path style=" stroke:none;fill-rule:nonzero;fill:rgb(100%,100%,100%);fill-opacity:1;" d="M 75.839844 58.257813 C 76.9375 57.953125 77.71875 59.179688 77.574219 60.132813 C 77.445313 61.421875 76.007813 62.144531 76.53125 63.746094 C 75.21875 63.03125 74.609375 62.398438 74.308594 61.039063 C 73.957031 59.601563 75.074219 58.523438 75.839844 58.257813 "/>
<path style=" stroke:none;fill-rule:nonzero;fill:rgb(100%,100%,100%);fill-opacity:1;" d="M 81.8125 49.710938 C 82.308594 48.113281 81.714844 47.476563 81.328125 46.859375 C 80.957031 46.316406 79.457031 45.871094 78.894531 44.84375 C 79.011719 45.894531 78.753906 47.777344 79.660156 49.015625 C 80.113281 49.59375 81.632813 50.292969 81.8125 49.710938 "/>
<path style=" stroke:none;fill-rule:nonzero;fill:rgb(100%,100%,100%);fill-opacity:1;" d="M 82.4375 47.140625 C 82.160156 45.957031 80.980469 45.785156 80.144531 44.636719 C 79.347656 43.414063 80.789063 42.527344 80.144531 41.300781 C 80.601563 41.535156 80.847656 41.578125 81.328125 41.855469 C 81.78125 42.167969 83.414063 43.207031 83.132813 44.707031 C 83.03125 45.871094 83.09375 45.742188 82.4375 47.140625 "/>
<path style=" stroke:none;fill-rule:nonzero;fill:rgb(100%,100%,100%);fill-opacity:1;" d="M 83.136719 47.96875 C 83.980469 47.160156 85.085938 47.839844 86.398438 47.484375 C 87.789063 47.078125 87.347656 45.617188 88.554688 45.125 C 88.109375 45.070313 87.855469 44.941406 87.367188 44.84375 C 86.820313 44.855469 85.210938 44.730469 84.453125 45.886719 C 83.808594 46.84375 83.808594 47.183594 83.136719 47.96875 "/>
<path style=" stroke:none;fill-rule:nonzero;fill:rgb(100%,100%,100%);fill-opacity:1;" d="M 75.839844 50.195313 C 75.433594 50.082031 75.246094 49.171875 74.515625 48.527344 C 73.53125 47.605469 71.628906 47.730469 70.484375 47.902344 C 70.886719 47.96875 71.777344 49.660156 72.152344 49.988281 C 72.9375 50.84375 73.722656 50.695313 74.585938 50.613281 C 75.054688 50.441406 75.589844 50.378906 75.839844 50.195313 "/>
<path style=" stroke:none;fill-rule:nonzero;fill:rgb(100%,100%,100%);fill-opacity:1;" d="M 75.140625 50.957031 C 74.308594 51.480469 74.203125 51.730469 73.960938 52.347656 C 73.613281 53.253906 73.847656 54.523438 74.585938 55.476563 C 74.84375 54.058594 76.238281 53.570313 76.601563 53.117188 C 77.042969 52.597656 77.105469 51.5625 76.671875 50.890625 C 78.0625 51.054688 79.921875 52.40625 82.234375 55.753906 L 81.886719 53.042969 C 81.78125 52.960938 79.285156 51.605469 78.617188 51.167969 C 78.207031 50.800781 78.863281 49.847656 78.894531 49.292969 C 79.09375 46.84375 76.40625 46.335938 75.835938 45.609375 C 76.046875 46.800781 75.796875 47.625 75.835938 48.527344 C 75.984375 49.785156 78.226563 50.207031 78.480469 51.167969 C 77.972656 50.84375 77.277344 50.800781 76.460938 50.679688 C 75.984375 50.84375 75.625 50.695313 75.140625 50.957031 "/>
<path style=" stroke:none;fill-rule:nonzero;fill:rgb(100%,100%,100%);fill-opacity:1;" d="M 82.296875 59.019531 C 82.417969 60.003906 83.328125 60.070313 84.035156 59.507813 C 85.164063 58.546875 88.296875 57.527344 90.425781 57.769531 L 90.292969 57.910156 C 90.308594 57.890625 89.082031 58.039063 88.625 58.117188 C 88.128906 58.25 87.597656 58.460938 87.582031 58.464844 C 88.238281 58.652344 88.890625 58.902344 89.246094 59.160156 C 89.320313 59.242188 89.035156 59.179688 89.109375 59.296875 C 88.363281 58.96875 87.09375 58.863281 86.332031 59.089844 C 85.824219 59.285156 83.964844 61.125 83.34375 62.359375 C 82.730469 63.558594 83.09375 63.8125 82.785156 64.859375 L 82.296875 59.019531 "/>
<path style=" stroke:none;fill-rule:nonzero;fill:rgb(100%,100%,100%);fill-opacity:1;" d="M 90.152344 57.839844 C 90.523438 57.210938 91.472656 55.625 92.445313 55.335938 C 93.476563 54.945313 94.601563 55.414063 95.710938 54.78125 C 95.492188 55.839844 94.792969 57.421875 93.558594 57.769531 C 92.507813 58.164063 91.410156 58.222656 90.152344 57.839844 "/>
<path style=" stroke:none;fill-rule:nonzero;fill:rgb(100%,100%,100%);fill-opacity:1;" d="M 87.164063 58.046875 C 86.371094 57.085938 85.378906 58.039063 84.453125 56.589844 C 84.003906 55.875 84.273438 54.90625 83.6875 54.15625 C 84.976563 54.289063 85.675781 54.355469 86.675781 55.128906 C 87.519531 55.859375 87.558594 57.296875 87.164063 58.046875 "/>
<path style=" stroke:none;fill-rule:nonzero;fill:rgb(100%,100%,100%);fill-opacity:1;" d="M 88.96875 58.882813 C 91.515625 58.480469 92.527344 59.539063 93.074219 59.996094 C 93.566406 60.492188 94.476563 61.925781 94.460938 63.398438 C 93.777344 62.078125 91.894531 62.183594 90.78125 62.011719 C 89.886719 61.910156 89.121094 60.933594 89.035156 60.34375 C 88.871094 59.945313 89.035156 59.242188 88.96875 58.882813 "/>
<path style=" stroke:none;fill-rule:nonzero;fill:rgb(100%,100%,100%);fill-opacity:1;" d="M 87.441406 59.4375 C 86.414063 59.011719 85.484375 60.128906 85.496094 61.039063 C 85.484375 62.398438 86.835938 63.285156 86.121094 64.789063 C 87.496094 64.257813 88.195313 63.683594 88.625 62.425781 C 89.183594 61 88.195313 59.792969 87.441406 59.4375 "/>
<path style=" stroke:none;fill-rule:nonzero;fill:rgb(100%,100%,100%);fill-opacity:1;" d="M 88.210938 51.234375 C 88.613281 51.160156 88.910156 50.292969 89.734375 49.710938 C 90.8125 48.9375 92.675781 49.296875 93.765625 49.570313 C 93.394531 49.613281 92.296875 51.203125 91.890625 51.515625 C 91.027344 52.242188 90.242188 51.984375 89.386719 51.792969 C 88.972656 51.5625 88.425781 51.4375 88.210938 51.234375 "/>
<path style=" stroke:none;fill-rule:nonzero;fill:rgb(100%,100%,100%);fill-opacity:1;" d="M 88.832031 52.003906 C 89.589844 52.683594 89.652344 52.933594 89.808594 53.597656 C 90.03125 54.523438 89.652344 55.773438 88.832031 56.589844 C 88.722656 55.179688 87.386719 54.523438 87.09375 54.019531 C 86.714844 53.46875 86.921875 52.367188 87.367188 51.722656 C 86.035156 51.753906 83.898438 52.917969 81.1875 55.960938 L 81.8125 53.253906 C 81.929688 53.234375 84.617188 52.199219 85.359375 51.863281 C 85.800781 51.542969 85.230469 50.589844 85.222656 50.054688 C 85.378906 47.714844 88.089844 47.839844 88.691406 47.277344 C 88.40625 48.347656 88.65625 48.664063 88.273438 49.988281 C 87.808594 51.351563 85.632813 50.949219 85.496094 51.863281 C 86.058594 51.605469 86.898438 51.480469 87.511719 51.585938 C 87.980469 51.796875 88.363281 51.753906 88.832031 52.003906 "/>
<path style=" stroke:none;fill-rule:nonzero;fill:rgb(100%,100%,100%);fill-opacity:1;" d="M 84.035156 44.496094 C 83.558594 42.847656 84.152344 42.1875 84.59375 41.507813 C 84.953125 40.941406 86.546875 40.496094 87.09375 39.421875 C 87.007813 40.496094 87.261719 42.507813 86.332031 43.800781 C 85.847656 44.410156 84.261719 45.152344 84.035156 44.496094 "/>
<path style=" stroke:none;fill-rule:nonzero;fill:rgb(100%,100%,100%);fill-opacity:1;" d="M 38.578125 116.300781 L 37.695313 115.773438 L 37.828125 115.546875 L 40.742188 117.300781 L 40.609375 117.523438 L 39.722656 116.988281 L 36.402344 122.511719 L 37.292969 123.042969 L 37.15625 123.269531 L 34.246094 121.519531 L 34.375 121.296875 L 35.261719 121.824219 L 38.578125 116.300781 "/>
<path style="fill:none;stroke-width:2.01;stroke-linecap:butt;stroke-linejoin:miter;stroke:rgb(100%,100%,100%);stroke-opacity:1;stroke-miterlimit:4;" d="M 385.78125 193.192188 L 376.953125 198.465625 L 378.28125 200.73125 L 407.421875 183.192188 L 406.09375 180.965625 L 397.226563 186.317188 L 364.023438 131.082813 L 372.929688 125.770313 L 371.5625 123.504688 L 342.460938 141.004688 L 343.75 143.23125 L 352.617188 137.957813 Z M 385.78125 193.192188 " transform="matrix(0.1,0,0,-0.1,0,135.62)"/>
<path style=" stroke:none;fill-rule:nonzero;fill:rgb(100%,100%,100%);fill-opacity:1;" d="M 34.789063 113.628906 L 34.625 113.835938 L 33.824219 113.183594 L 29.765625 118.1875 L 30.570313 118.839844 L 30.40625 119.042969 L 27.722656 116.875 L 27.886719 116.667969 L 28.730469 117.347656 L 32.78125 112.34375 L 31.726563 111.480469 C 30.695313 110.652344 29.773438 111.042969 28.984375 111.949219 L 28.734375 111.75 L 30.289063 109.988281 L 34.789063 113.628906 "/>
<path style="fill:none;stroke-width:2.01;stroke-linecap:butt;stroke-linejoin:miter;stroke:rgb(100%,100%,100%);stroke-opacity:1;stroke-miterlimit:4;" d="M 347.890625 219.910938 L 346.25 217.840625 L 338.242188 224.364063 L 297.65625 174.325 L 305.703125 167.801563 L 304.0625 165.770313 L 277.226563 187.45 L 278.867188 189.520313 L 287.304688 182.723438 L 327.8125 232.7625 L 317.265625 241.395313 C 306.953125 249.676563 297.734375 245.770313 289.84375 236.707813 L 287.34375 238.7 L 302.890625 256.317188 Z M 347.890625 219.910938 " transform="matrix(0.1,0,0,-0.1,0,135.62)"/>
<path style=" stroke:none;fill-rule:nonzero;fill:rgb(100%,100%,100%);fill-opacity:1;" d="M 27.589844 107.550781 L 27.390625 107.726563 L 26.714844 106.945313 L 21.855469 111.171875 L 22.53125 111.953125 L 22.335938 112.121094 L 20.070313 109.519531 L 20.265625 109.347656 L 20.976563 110.164063 L 25.84375 105.941406 L 24.945313 104.910156 C 24.074219 103.910156 23.097656 104.136719 22.167969 104.894531 L 21.953125 104.652344 L 23.789063 103.1875 L 27.589844 107.550781 "/>
<path style="fill:none;stroke-width:2.01;stroke-linecap:butt;stroke-linejoin:miter;stroke:rgb(100%,100%,100%);stroke-opacity:1;stroke-miterlimit:4;" d="M 275.898438 280.692188 L 273.90625 278.934375 L 267.148438 286.746875 L 218.554688 244.48125 L 225.3125 236.66875 L 223.359375 234.989063 L 200.703125 261.004688 L 202.65625 262.723438 L 209.765625 254.559375 L 258.4375 296.785938 L 249.453125 307.098438 C 240.742188 317.098438 230.976563 314.832813 221.679688 307.254688 L 219.53125 309.676563 L 237.890625 324.325 Z M 275.898438 280.692188 " transform="matrix(0.1,0,0,-0.1,0,135.62)"/>
<path style=" stroke:none;fill-rule:nonzero;fill:rgb(100%,100%,100%);fill-opacity:1;" d="M 20.085938 98.398438 L 19.527344 97.527344 L 19.742188 97.386719 L 21.597656 100.234375 L 21.375 100.378906 L 20.8125 99.515625 L 15.410156 103.023438 L 15.972656 103.886719 L 15.753906 104.027344 L 13.902344 101.179688 L 14.121094 101.039063 L 14.683594 101.902344 L 20.085938 98.398438 "/>
<path style="fill:none;stroke-width:2.01;stroke-linecap:butt;stroke-linejoin:miter;stroke:rgb(100%,100%,100%);stroke-opacity:1;stroke-miterlimit:4;" d="M 200.859375 372.215625 L 195.273438 380.926563 L 197.421875 382.332813 L 215.976563 353.85625 L 213.75 352.410938 L 208.125 361.04375 L 154.101563 325.965625 L 159.726563 317.332813 L 157.539063 315.926563 L 139.023438 344.403125 L 141.210938 345.809375 L 146.835938 337.176563 Z M 200.859375 372.215625 " transform="matrix(0.1,0,0,-0.1,0,135.62)"/>
<path style=" stroke:none;fill-rule:nonzero;fill:rgb(100%,100%,100%);fill-opacity:1;" d="M 15.484375 88.847656 L 15.613281 89.128906 L 11.472656 95.9375 L 17.121094 93.300781 L 16.691406 92.378906 L 16.929688 92.269531 L 17.933594 94.421875 L 17.699219 94.53125 L 17.261719 93.609375 L 11.425781 96.328125 L 11.859375 97.253906 L 11.625 97.367188 L 10.496094 94.949219 L 13.316406 90.222656 L 9.425781 92.039063 L 9.847656 92.945313 L 9.613281 93.054688 L 8.609375 90.902344 L 8.847656 90.792969 L 9.285156 91.738281 L 15.484375 88.847656 "/>
<path style="fill:none;stroke-width:2.01;stroke-linecap:butt;stroke-linejoin:miter;stroke:rgb(100%,100%,100%);stroke-opacity:1;stroke-miterlimit:4;" d="M 154.84375 467.723438 L 156.132813 464.910938 L 114.726563 396.825 L 171.210938 423.192188 L 166.914063 432.410938 L 169.296875 433.504688 L 179.335938 411.98125 L 176.992188 410.8875 L 172.617188 420.10625 L 114.257813 392.91875 L 118.59375 383.660938 L 116.25 382.528125 L 104.960938 406.707813 L 133.164063 453.973438 L 94.257813 435.809375 L 98.476563 426.746875 L 96.132813 425.653125 L 86.09375 447.176563 L 88.476563 448.270313 L 92.851563 438.817188 Z M 154.84375 467.723438 " transform="matrix(0.1,0,0,-0.1,0,135.62)"/>
<path style=" stroke:none;fill-rule:nonzero;fill:rgb(100%,100%,100%);fill-opacity:1;" d="M 10.121094 79.964844 C 10.515625 79.871094 10.898438 79.792969 11.28125 79.800781 C 12.023438 79.820313 12.605469 80.125 12.828125 81.089844 C 13.050781 82.042969 12.664063 82.589844 12.003906 82.929688 C 11.667969 83.101563 11.285156 83.214844 10.894531 83.300781 L 8.675781 83.8125 C 8.3125 83.898438 7.953125 83.917969 7.628906 83.894531 C 6.960938 83.855469 6.457031 83.515625 6.246094 82.613281 C 6.042969 81.71875 6.351563 81.207031 6.925781 80.859375 C 7.207031 80.6875 7.539063 80.554688 7.90625 80.472656 Z M 13.085938 81.03125 C 12.617188 79.019531 10.496094 78.300781 8.636719 78.734375 C 6.960938 79.117188 5.605469 80.96875 5.996094 82.667969 C 6.386719 84.363281 8.421875 85.449219 10.097656 85.058594 C 11.957031 84.632813 13.546875 83.042969 13.085938 81.03125 "/>
<path style="fill:none;stroke-width:2.01;stroke-linecap:butt;stroke-linejoin:miter;stroke:rgb(100%,100%,100%);stroke-opacity:1;stroke-miterlimit:4;" d="M 101.210938 556.551563 C 105.15625 557.489063 108.984375 558.270313 112.8125 558.192188 C 120.234375 557.996875 126.054688 554.95 128.28125 545.301563 C 130.507813 535.770313 126.640625 530.301563 120.039063 526.903125 C 116.679688 525.184375 112.851563 524.051563 108.945313 523.192188 L 86.757813 518.075 C 83.125 517.215625 79.53125 517.020313 76.289063 517.254688 C 69.609375 517.645313 64.570313 521.04375 62.460938 530.067188 C 60.429688 539.0125 63.515625 544.129688 69.257813 547.60625 C 72.070313 549.325 75.390625 550.653125 79.0625 551.473438 Z M 130.859375 545.8875 C 126.171875 566.004688 104.960938 573.192188 86.367188 568.85625 C 69.609375 565.028125 56.054688 546.5125 59.960938 529.520313 C 63.867188 512.567188 84.21875 501.707813 100.976563 505.614063 C 119.570313 509.871875 135.46875 525.770313 130.859375 545.8875 Z M 130.859375 545.8875 " transform="matrix(0.1,0,0,-0.1,0,135.62)"/>
<path style=" stroke:none;fill-rule:nonzero;fill:rgb(100%,100%,100%);fill-opacity:1;" d="M 11.199219 71.792969 L 11.113281 70.761719 L 11.371094 70.742188 L 11.664063 74.125 L 11.40625 74.148438 L 11.316406 73.121094 L 4.898438 73.679688 L 4.984375 74.710938 L 4.726563 74.730469 L 4.429688 71.347656 L 4.691406 71.324219 L 4.78125 72.355469 L 11.199219 71.792969 "/>
<path style="fill:none;stroke-width:2.01;stroke-linecap:butt;stroke-linejoin:miter;stroke:rgb(100%,100%,100%);stroke-opacity:1;stroke-miterlimit:4;" d="M 111.992188 638.270313 L 111.132813 648.582813 L 113.710938 648.778125 L 116.640625 614.95 L 114.0625 614.715625 L 113.164063 624.989063 L 48.984375 619.403125 L 49.84375 609.090625 L 47.265625 608.895313 L 44.296875 642.723438 L 46.914063 642.957813 L 47.8125 632.645313 Z M 111.992188 638.270313 " transform="matrix(0.1,0,0,-0.1,0,135.62)"/>
<path style=" stroke:none;fill-rule:nonzero;fill:rgb(100%,100%,100%);fill-opacity:1;" d="M 11.382813 66.535156 L 11.375 66.714844 L 9.304688 66.605469 L 9.320313 66.304688 C 10.320313 66.136719 11.269531 65.589844 11.328125 64.488281 C 11.371094 63.667969 10.800781 62.90625 9.949219 62.859375 C 8.980469 62.808594 8.746094 63.664063 8.4375 64.433594 C 8.355469 64.636719 8.269531 64.839844 8.199219 65.042969 C 7.851563 65.996094 7.097656 66.4375 6.113281 66.390625 C 5.019531 66.332031 4.25 65.472656 4.308594 64.390625 C 4.335938 63.789063 4.507813 63.359375 4.90625 62.898438 L 4.511719 62.480469 L 4.519531 62.292969 L 6.488281 62.398438 L 6.46875 62.730469 C 5.476563 62.792969 4.617188 63.394531 4.566406 64.4375 C 4.527344 65.101563 4.984375 65.75 5.679688 65.789063 C 6.484375 65.832031 6.597656 65.285156 6.808594 64.648438 C 6.894531 64.390625 6.976563 64.1875 7.035156 64.015625 C 7.113281 63.804688 7.199219 63.550781 7.3125 63.339844 C 7.777344 62.484375 8.480469 62.210938 9.417969 62.257813 C 10.730469 62.328125 11.65625 63.234375 11.585938 64.578125 C 11.554688 65.0625 11.328125 65.679688 10.972656 66.027344 L 11.382813 66.535156 "/>
<path style="fill:none;stroke-width:2.01;stroke-linecap:butt;stroke-linejoin:miter;stroke:rgb(100%,100%,100%);stroke-opacity:1;stroke-miterlimit:4;" d="M 113.828125 690.848438 L 113.75 689.051563 L 93.046875 690.145313 L 93.203125 693.153125 C 103.203125 694.832813 112.695313 700.301563 113.28125 711.317188 C 113.710938 719.520313 108.007813 727.1375 99.492188 727.60625 C 89.804688 728.114063 87.460938 719.559375 84.375 711.864063 C 83.554688 709.832813 82.695313 707.801563 81.992188 705.770313 C 78.515625 696.239063 70.976563 691.825 61.132813 692.29375 C 50.195313 692.879688 42.5 701.473438 43.085938 712.29375 C 43.359375 718.309375 45.078125 722.60625 49.0625 727.215625 L 45.117188 731.395313 L 45.195313 733.270313 L 64.882813 732.215625 L 64.6875 728.895313 C 54.765625 728.270313 46.171875 722.254688 45.664063 711.825 C 45.273438 705.184375 49.84375 698.7 56.796875 698.309375 C 64.84375 697.879688 65.976563 703.348438 68.085938 709.715625 C 68.945313 712.29375 69.765625 714.325 70.351563 716.04375 C 71.132813 718.153125 71.992188 720.692188 73.125 722.801563 C 77.773438 731.35625 84.804688 734.090625 94.179688 733.621875 C 107.304688 732.91875 116.5625 723.85625 115.859375 710.41875 C 115.546875 705.575 113.28125 699.403125 109.726563 695.926563 Z M 113.828125 690.848438 " transform="matrix(0.1,0,0,-0.1,0,135.62)"/>
<path style=" stroke:none;fill-rule:nonzero;fill:rgb(100%,100%,100%);fill-opacity:1;" d="M 14.546875 48.125 L 14.882813 47.148438 L 15.128906 47.230469 L 14.023438 50.445313 L 13.777344 50.363281 L 14.113281 49.386719 L 8.019531 47.289063 L 7.683594 48.261719 L 7.4375 48.179688 L 8.542969 44.964844 L 8.789063 45.050781 L 8.453125 46.027344 L 14.546875 48.125 "/>
<path style="fill:none;stroke-width:2.01;stroke-linecap:butt;stroke-linejoin:miter;stroke:rgb(100%,100%,100%);stroke-opacity:1;stroke-miterlimit:4;" d="M 145.46875 874.95 L 148.828125 884.715625 L 151.289063 883.895313 L 140.234375 851.746875 L 137.773438 852.567188 L 141.132813 862.332813 L 80.195313 883.309375 L 76.835938 873.582813 L 74.375 874.403125 L 85.429688 906.551563 L 87.890625 905.692188 L 84.53125 895.926563 Z M 145.46875 874.95 " transform="matrix(0.1,0,0,-0.1,0,135.62)"/>
<path style=" stroke:none;fill-rule:nonzero;fill:rgb(100%,100%,100%);fill-opacity:1;" d="M 19.515625 38.578125 L 19.363281 38.851563 L 11.417969 39.503906 L 16.871094 42.527344 L 17.367188 41.632813 L 17.597656 41.757813 L 16.445313 43.839844 L 16.21875 43.710938 L 16.710938 42.816406 L 11.082031 39.695313 L 10.582031 40.589844 L 10.355469 40.460938 L 11.648438 38.128906 L 17.132813 37.640625 L 13.375 35.554688 L 12.886719 36.429688 L 12.65625 36.304688 L 13.8125 34.226563 L 14.039063 34.351563 L 13.53125 35.261719 L 19.515625 38.578125 "/>
<path style="fill:none;stroke-width:2.01;stroke-linecap:butt;stroke-linejoin:miter;stroke:rgb(100%,100%,100%);stroke-opacity:1;stroke-miterlimit:4;" d="M 195.15625 970.41875 L 193.632813 967.684375 L 114.179688 961.160938 L 168.710938 930.926563 L 173.671875 939.871875 L 175.976563 938.621875 L 164.453125 917.801563 L 162.1875 919.090625 L 167.109375 928.035938 L 110.820313 959.246875 L 105.820313 950.301563 L 103.554688 951.590625 L 116.484375 974.910938 L 171.328125 979.79375 L 133.75 1000.653125 L 128.867188 991.903125 L 126.5625 993.153125 L 138.125 1013.934375 L 140.390625 1012.684375 L 135.3125 1003.582813 Z M 195.15625 970.41875 " transform="matrix(0.1,0,0,-0.1,0,135.62)"/>
<path style=" stroke:none;fill-rule:nonzero;fill:rgb(100%,100%,100%);fill-opacity:1;" d="M 22.3125 34.25 L 22.203125 34.386719 L 20.589844 33.082031 L 20.78125 32.84375 C 21.6875 33.300781 22.773438 33.414063 23.46875 32.554688 C 23.984375 31.914063 23.972656 30.96875 23.3125 30.429688 C 22.554688 29.824219 21.871094 30.375 21.167969 30.8125 C 20.976563 30.925781 20.789063 31.042969 20.613281 31.164063 C 19.773438 31.738281 18.902344 31.652344 18.132813 31.023438 C 17.285156 30.335938 17.164063 29.195313 17.84375 28.351563 C 18.226563 27.878906 18.613281 27.632813 19.210938 27.496094 L 19.136719 26.925781 L 19.253906 26.78125 L 20.78125 28.019531 L 20.574219 28.28125 C 19.734375 27.746094 18.6875 27.734375 18.027344 28.539063 C 17.609375 29.058594 17.597656 29.855469 18.136719 30.296875 C 18.765625 30.796875 19.175781 30.421875 19.722656 30.03125 C 19.941406 29.875 20.125 29.757813 20.28125 29.652344 C 20.457031 29.527344 20.679688 29.375 20.902344 29.269531 C 21.773438 28.851563 22.507813 29.039063 23.234375 29.632813 C 24.257813 30.460938 24.472656 31.734375 23.625 32.777344 C 23.316406 33.160156 22.769531 33.519531 22.28125 33.59375 L 22.3125 34.25 "/>
<path style="fill:none;stroke-width:2.01;stroke-linecap:butt;stroke-linejoin:miter;stroke:rgb(100%,100%,100%);stroke-opacity:1;stroke-miterlimit:4;" d="M 223.125 1013.7 L 222.03125 1012.332813 L 205.898438 1025.379688 L 207.8125 1027.7625 C 216.875 1023.192188 227.734375 1022.059375 234.6875 1030.653125 C 239.84375 1037.059375 239.726563 1046.5125 233.125 1051.903125 C 225.546875 1057.957813 218.710938 1052.45 211.679688 1048.075 C 209.765625 1046.942188 207.890625 1045.770313 206.132813 1044.559375 C 197.734375 1038.817188 189.023438 1039.676563 181.328125 1045.965625 C 172.851563 1052.840625 171.640625 1064.246875 178.4375 1072.684375 C 182.265625 1077.410938 186.132813 1079.871875 192.109375 1081.239063 L 191.367188 1086.942188 L 192.539063 1088.3875 L 207.8125 1076.004688 L 205.742188 1073.3875 C 197.34375 1078.739063 186.875 1078.85625 180.273438 1070.809375 C 176.09375 1065.614063 175.976563 1057.645313 181.367188 1053.23125 C 187.65625 1048.23125 191.757813 1051.98125 197.226563 1055.8875 C 199.414063 1057.45 201.25 1058.621875 202.8125 1059.676563 C 204.570313 1060.926563 206.796875 1062.45 209.023438 1063.504688 C 217.734375 1067.684375 225.078125 1065.809375 232.34375 1059.871875 C 242.578125 1051.590625 244.726563 1038.85625 236.25 1028.426563 C 233.164063 1024.598438 227.695313 1021.004688 222.8125 1020.2625 Z M 223.125 1013.7 " transform="matrix(0.1,0,0,-0.1,0,135.62)"/>
<path style=" stroke:none;fill-rule:nonzero;fill:rgb(100%,100%,100%);fill-opacity:1;" d="M 28.679688 27.015625 L 28.503906 26.820313 L 29.316406 26.089844 L 25.003906 21.300781 C 23.863281 22.230469 24.003906 23.058594 24.761719 24.175781 L 24.511719 24.398438 L 23.101563 22.664063 L 27.542969 18.667969 L 29.121094 20.246094 L 28.878906 20.464844 C 27.851563 19.597656 27.035156 19.371094 26 20.410156 L 30.308594 25.195313 L 31.117188 24.464844 L 31.296875 24.65625 L 28.679688 27.015625 "/>
<path style="fill:none;stroke-width:2.01;stroke-linecap:butt;stroke-linejoin:miter;stroke:rgb(100%,100%,100%);stroke-opacity:1;stroke-miterlimit:4;" d="M 286.796875 1086.04375 L 285.039063 1087.996875 L 293.164063 1095.301563 L 250.039063 1143.192188 C 238.632813 1133.895313 240.039063 1125.614063 247.617188 1114.442188 L 245.117188 1112.215625 L 231.015625 1129.559375 L 275.429688 1169.520313 L 291.210938 1153.739063 L 288.789063 1151.551563 C 278.515625 1160.223438 270.351563 1162.489063 260 1152.098438 L 303.085938 1104.246875 L 311.171875 1111.551563 L 312.96875 1109.6375 Z M 286.796875 1086.04375 " transform="matrix(0.1,0,0,-0.1,0,135.62)"/>
<path style=" stroke:none;fill-rule:nonzero;fill:rgb(100%,100%,100%);fill-opacity:1;" d="M 37.058594 20.054688 L 37.910156 19.472656 L 38.054688 19.691406 L 35.242188 21.59375 L 35.09375 21.375 L 35.953125 20.796875 L 32.347656 15.457031 L 31.492188 16.035156 L 31.347656 15.820313 L 34.160156 13.917969 L 34.3125 14.132813 L 33.457031 14.710938 L 37.058594 20.054688 "/>
<path style="fill:none;stroke-width:2.01;stroke-linecap:butt;stroke-linejoin:miter;stroke:rgb(100%,100%,100%);stroke-opacity:1;stroke-miterlimit:4;" d="M 370.585938 1155.653125 L 379.101563 1161.473438 L 380.546875 1159.285938 L 352.421875 1140.2625 L 350.9375 1142.45 L 359.53125 1148.23125 L 323.476563 1201.629688 L 314.921875 1195.848438 L 313.476563 1197.996875 L 341.601563 1217.020313 L 343.125 1214.871875 L 334.570313 1209.090625 Z M 370.585938 1155.653125 " transform="matrix(0.1,0,0,-0.1,0,135.62)"/>
<path style=" stroke:none;fill-rule:nonzero;fill:rgb(100%,100%,100%);fill-opacity:1;" d="M 42.507813 17.222656 L 42.398438 16.988281 L 43.390625 16.523438 L 40.667969 10.6875 C 39.304688 11.238281 39.195313 12.070313 39.597656 13.359375 L 39.289063 13.5 L 38.449219 11.433594 L 43.863281 8.90625 L 44.90625 10.878906 L 44.617188 11.019531 C 43.882813 9.886719 43.179688 9.433594 41.878906 10.121094 L 44.601563 15.960938 L 45.589844 15.5 L 45.699219 15.730469 L 42.507813 17.222656 "/>
<path style="fill:none;stroke-width:2.01;stroke-linecap:butt;stroke-linejoin:miter;stroke:rgb(100%,100%,100%);stroke-opacity:1;stroke-miterlimit:4;" d="M 425.078125 1183.973438 L 423.984375 1186.317188 L 433.90625 1190.965625 L 406.679688 1249.325 C 393.046875 1243.817188 391.953125 1235.496875 395.976563 1222.60625 L 392.890625 1221.2 L 384.492188 1241.864063 L 438.632813 1267.1375 L 449.0625 1247.410938 L 446.171875 1246.004688 C 438.828125 1257.332813 431.796875 1261.864063 418.789063 1254.989063 L 446.015625 1196.590625 L 455.898438 1201.2 L 456.992188 1198.895313 Z M 425.078125 1183.973438 " transform="matrix(0.1,0,0,-0.1,0,135.62)"/>
<path style=" stroke:none;fill-rule:nonzero;fill:rgb(100%,100%,100%);fill-opacity:1;" d="M 55.875 5.40625 L 55.9375 5.660156 L 54.917969 5.894531 L 55.90625 10.160156 C 56.140625 11.179688 56.058594 11.71875 55.734375 12.191406 C 55.398438 12.660156 54.796875 12.964844 53.882813 13.175781 C 53.160156 13.34375 52.460938 13.269531 51.960938 13.050781 C 51.449219 12.828125 51.101563 12.210938 50.839844 11.074219 L 49.914063 7.050781 L 48.90625 7.285156 L 48.851563 7.027344 L 52.164063 6.269531 L 52.214844 6.519531 L 51.210938 6.75 L 52.070313 10.46875 C 52.394531 11.882813 52.527344 13.144531 54.363281 12.722656 C 55.554688 12.445313 55.890625 11.578125 55.628906 10.460938 L 54.59375 5.96875 L 53.609375 6.199219 L 53.546875 5.941406 L 55.875 5.40625 "/>
<path style="fill:none;stroke-width:2.01;stroke-linecap:butt;stroke-linejoin:miter;stroke:rgb(100%,100%,100%);stroke-opacity:1;stroke-miterlimit:4;" d="M 558.75 1302.1375 L 559.375 1299.598438 L 549.179688 1297.254688 L 559.0625 1254.598438 C 561.40625 1244.403125 560.585938 1239.0125 557.34375 1234.285938 C 553.984375 1229.598438 547.96875 1226.551563 538.828125 1224.442188 C 531.601563 1222.7625 524.609375 1223.504688 519.609375 1225.692188 C 514.492188 1227.91875 511.015625 1234.090625 508.398438 1245.457813 L 499.140625 1285.692188 L 489.0625 1283.348438 L 488.515625 1285.926563 L 521.640625 1293.504688 L 522.148438 1291.004688 L 512.109375 1288.7 L 520.703125 1251.5125 C 523.945313 1237.371875 525.273438 1224.754688 543.632813 1228.973438 C 555.546875 1231.746875 558.90625 1240.41875 556.289063 1251.590625 L 545.9375 1296.5125 L 536.09375 1294.207813 L 535.46875 1296.785938 Z M 558.75 1302.1375 " transform="matrix(0.1,0,0,-0.1,0,135.62)"/>
<path style=" stroke:none;fill-rule:nonzero;fill:rgb(100%,100%,100%);fill-opacity:1;" d="M 62.265625 11.507813 L 62.246094 11.246094 L 63.34375 11.171875 L 62.886719 4.742188 C 61.417969 4.773438 61.019531 5.511719 60.921875 6.855469 L 60.59375 6.878906 L 60.554688 4.644531 L 66.511719 4.230469 L 66.78125 6.449219 L 66.457031 6.46875 C 66.175781 5.152344 65.679688 4.472656 64.21875 4.648438 L 64.664063 11.078125 L 65.761719 11 L 65.773438 11.257813 L 62.265625 11.507813 "/>
<path style="fill:none;stroke-width:2.01;stroke-linecap:butt;stroke-linejoin:miter;stroke:rgb(100%,100%,100%);stroke-opacity:1;stroke-miterlimit:4;" d="M 622.65625 1241.121875 L 622.460938 1243.739063 L 633.4375 1244.48125 L 628.867188 1308.778125 C 614.179688 1308.465625 610.195313 1301.082813 609.21875 1287.645313 L 605.9375 1287.410938 L 605.546875 1309.754688 L 665.117188 1313.895313 L 667.8125 1291.707813 L 664.570313 1291.5125 C 661.757813 1304.676563 656.796875 1311.473438 642.1875 1309.715625 L 646.640625 1245.41875 L 657.617188 1246.2 L 657.734375 1243.621875 Z M 622.65625 1241.121875 " transform="matrix(0.1,0,0,-0.1,0,135.62)"/>
<path style=" stroke:none;fill-rule:nonzero;fill:rgb(100%,100%,100%);fill-opacity:1;" d="M 74.152344 4.890625 L 73.785156 7.859375 C 74.78125 7.980469 75.328125 7.890625 75.515625 6.789063 L 75.804688 6.824219 L 75.449219 9.710938 L 75.160156 9.679688 C 75.210938 8.515625 74.875 8.222656 73.757813 8.117188 L 73.367188 11.285156 L 74.835938 11.464844 C 76.183594 11.628906 76.574219 10.867188 76.925781 9.722656 L 77.226563 9.761719 L 76.863281 11.972656 L 70.976563 11.253906 L 71.011719 10.992188 L 72.046875 11.121094 L 72.828125 4.722656 L 71.792969 4.597656 L 71.824219 4.339844 L 77.546875 5.042969 L 77.382813 6.914063 L 77.089844 6.875 C 76.996094 5.859375 76.652344 5.425781 76.140625 5.21875 C 75.890625 5.113281 75.589844 5.066406 75.25 5.023438 L 74.152344 4.890625 "/>
<path style="fill:none;stroke-width:2.01;stroke-linecap:butt;stroke-linejoin:miter;stroke:rgb(100%,100%,100%);stroke-opacity:1;stroke-miterlimit:4;" d="M 741.523438 1307.29375 L 737.851563 1277.60625 C 747.8125 1276.395313 753.28125 1277.29375 755.15625 1288.309375 L 758.046875 1287.957813 L 754.492188 1259.090625 L 751.601563 1259.403125 C 752.109375 1271.04375 748.75 1273.973438 737.578125 1275.028125 L 733.671875 1243.348438 L 748.359375 1241.551563 C 761.835938 1239.910938 765.742188 1247.528125 769.257813 1258.973438 L 772.265625 1258.582813 L 768.632813 1236.473438 L 709.765625 1243.660938 L 710.117188 1246.278125 L 720.46875 1244.989063 L 728.28125 1308.973438 L 717.929688 1310.223438 L 718.242188 1312.801563 L 775.46875 1305.770313 L 773.828125 1287.059375 L 770.898438 1287.45 C 769.960938 1297.60625 766.523438 1301.942188 761.40625 1304.0125 C 758.90625 1305.067188 755.898438 1305.535938 752.5 1305.965625 Z M 741.523438 1307.29375 " transform="matrix(0.1,0,0,-0.1,0,135.62)"/>
<path style=" stroke:none;fill-rule:nonzero;fill:rgb(100%,100%,100%);fill-opacity:1;" d="M 94.433594 15.085938 C 94.253906 15.453125 94.082031 15.808594 93.84375 16.097656 C 93.367188 16.671875 92.765625 16.945313 91.871094 16.527344 C 90.980469 16.113281 90.796875 15.472656 90.929688 14.746094 C 91.003906 14.371094 91.148438 14.007813 91.316406 13.636719 L 92.28125 11.578125 C 92.441406 11.234375 92.644531 10.941406 92.859375 10.699219 C 93.300781 10.203125 93.882813 10.011719 94.722656 10.40625 C 95.554688 10.792969 95.773438 11.351563 95.691406 12.015625 C 95.652344 12.339844 95.542969 12.6875 95.390625 13.027344 Z M 91.757813 16.761719 C 93.632813 17.636719 95.507813 16.40625 96.308594 14.675781 C 97.035156 13.117188 96.40625 10.90625 94.832031 10.167969 C 93.257813 9.433594 91.152344 10.375 90.425781 11.929688 C 89.617188 13.660156 89.886719 15.890625 91.757813 16.761719 "/>
<path style="fill:none;stroke-width:2.01;stroke-linecap:butt;stroke-linejoin:miter;stroke:rgb(100%,100%,100%);stroke-opacity:1;stroke-miterlimit:4;" d="M 944.335938 1205.340625 C 942.539063 1201.66875 940.820313 1198.114063 938.4375 1195.223438 C 933.671875 1189.48125 927.65625 1186.746875 918.710938 1190.926563 C 909.804688 1195.067188 907.96875 1201.473438 909.296875 1208.739063 C 910.039063 1212.489063 911.484375 1216.121875 913.164063 1219.832813 L 922.8125 1240.41875 C 924.414063 1243.85625 926.445313 1246.785938 928.59375 1249.207813 C 933.007813 1254.16875 938.828125 1256.082813 947.226563 1252.1375 C 955.546875 1248.270313 957.734375 1242.684375 956.914063 1236.04375 C 956.523438 1232.801563 955.429688 1229.325 953.90625 1225.926563 Z M 917.578125 1188.582813 C 936.328125 1179.832813 955.078125 1192.1375 963.085938 1209.442188 C 970.351563 1225.028125 964.0625 1247.1375 948.320313 1254.520313 C 932.578125 1261.864063 911.523438 1252.45 904.257813 1236.903125 C 896.171875 1219.598438 898.867188 1197.29375 917.578125 1188.582813 Z M 917.578125 1188.582813 " transform="matrix(0.1,0,0,-0.1,0,135.62)"/>
<path style=" stroke:none;fill-rule:nonzero;fill:rgb(100%,100%,100%);fill-opacity:1;" d="M 102.769531 15.078125 L 101.925781 14.484375 L 102.070313 14.273438 L 106.808594 17.582031 L 105.644531 19.371094 L 105.414063 19.207031 C 105.6875 18.558594 105.980469 17.871094 105.59375 17.222656 C 105.464844 17.003906 105.144531 16.738281 104.792969 16.492188 L 103.863281 15.84375 L 102.144531 18.296875 C 102.964844 18.867188 103.488281 19.046875 104.171875 18.164063 L 104.410156 18.328125 L 102.742188 20.707031 L 102.503906 20.542969 C 103.089844 19.542969 102.9375 19.128906 101.996094 18.507813 L 100.164063 21.117188 L 101.011719 21.710938 L 100.863281 21.925781 L 98.078125 19.972656 L 98.222656 19.761719 L 99.078125 20.355469 L 102.769531 15.078125 "/>
<path style="fill:none;stroke-width:2.01;stroke-linecap:butt;stroke-linejoin:miter;stroke:rgb(100%,100%,100%);stroke-opacity:1;stroke-miterlimit:4;" d="M 1027.695313 1205.41875 L 1019.257813 1211.35625 L 1020.703125 1213.465625 L 1068.085938 1180.379688 L 1056.445313 1162.489063 L 1054.140625 1164.129688 C 1056.875 1170.614063 1059.804688 1177.489063 1055.9375 1183.973438 C 1054.648438 1186.160938 1051.445313 1188.817188 1047.929688 1191.278125 L 1038.632813 1197.7625 L 1021.445313 1173.23125 C 1029.648438 1167.528125 1034.882813 1165.73125 1041.71875 1174.559375 L 1044.101563 1172.91875 L 1027.421875 1149.129688 L 1025.039063 1150.770313 C 1030.898438 1160.770313 1029.375 1164.910938 1019.960938 1171.121875 L 1001.640625 1145.028125 L 1010.117188 1139.090625 L 1008.632813 1136.942188 L 980.78125 1156.473438 L 982.226563 1158.582813 L 990.78125 1152.645313 Z M 1027.695313 1205.41875 " transform="matrix(0.1,0,0,-0.1,0,135.62)"/>
<path style=" stroke:none;fill-rule:nonzero;fill:rgb(100%,100%,100%);fill-opacity:1;" d="M 112.222656 32.683594 L 112.433594 32.53125 L 113.070313 33.417969 L 118.285156 29.628906 C 117.480469 28.398438 116.644531 28.453125 115.453125 29.085938 L 115.257813 28.816406 L 117.128906 27.597656 L 120.640625 32.429688 L 118.902344 33.832031 L 118.714844 33.574219 C 119.683594 32.636719 119.992188 31.855469 119.066406 30.710938 L 113.859375 34.496094 L 114.503906 35.382813 L 114.292969 35.535156 L 112.222656 32.683594 "/>
<path style="fill:none;stroke-width:2.01;stroke-linecap:butt;stroke-linejoin:miter;stroke:rgb(100%,100%,100%);stroke-opacity:1;stroke-miterlimit:4;" d="M 1122.226563 1029.364063 L 1124.335938 1030.8875 L 1130.703125 1022.020313 L 1182.851563 1059.910938 C 1174.804688 1072.215625 1166.445313 1071.66875 1154.53125 1065.340625 L 1152.578125 1068.035938 L 1171.289063 1080.223438 L 1206.40625 1031.903125 L 1189.023438 1017.879688 L 1187.148438 1020.457813 C 1196.835938 1029.832813 1199.921875 1037.645313 1190.664063 1049.090625 L 1138.59375 1011.239063 L 1145.039063 1002.371875 L 1142.929688 1000.848438 Z M 1122.226563 1029.364063 " transform="matrix(0.1,0,0,-0.1,0,135.62)"/>
<path style=" stroke:none;fill-rule:nonzero;fill:rgb(100%,100%,100%);fill-opacity:1;" d="M 124.195313 39.078125 L 121.507813 40.390625 C 121.945313 41.289063 122.316406 41.699219 123.347656 41.257813 L 123.472656 41.519531 L 120.859375 42.796875 L 120.730469 42.53125 C 121.730469 41.941406 121.796875 41.5 121.273438 40.503906 L 118.40625 41.902344 L 119.058594 43.234375 C 119.648438 44.453125 120.5 44.363281 121.652344 44.042969 L 121.785156 44.3125 L 119.730469 45.214844 L 117.132813 39.882813 L 117.363281 39.765625 L 117.824219 40.703125 L 123.613281 37.878906 L 123.152344 36.941406 L 123.390625 36.828125 L 125.914063 42.011719 L 124.257813 42.886719 L 124.132813 42.625 C 124.9375 41.992188 125.105469 41.46875 125.007813 40.921875 C 124.953125 40.65625 124.835938 40.382813 124.679688 40.074219 L 124.195313 39.078125 "/>
<path style="fill:none;stroke-width:2.01;stroke-linecap:butt;stroke-linejoin:miter;stroke:rgb(100%,100%,100%);stroke-opacity:1;stroke-miterlimit:4;" d="M 1241.953125 965.41875 L 1215.078125 952.29375 C 1219.453125 943.309375 1223.164063 939.207813 1233.476563 943.621875 L 1234.726563 941.004688 L 1208.59375 928.23125 L 1207.304688 930.8875 C 1217.304688 936.785938 1217.96875 941.2 1212.734375 951.160938 L 1184.0625 937.176563 L 1190.585938 923.85625 C 1196.484375 911.66875 1205 912.567188 1216.523438 915.770313 L 1217.851563 913.075 L 1197.304688 904.051563 L 1171.328125 957.371875 L 1173.632813 958.54375 L 1178.242188 949.16875 L 1236.132813 977.410938 L 1231.523438 986.785938 L 1233.90625 987.91875 L 1259.140625 936.082813 L 1242.578125 927.332813 L 1241.328125 929.95 C 1249.375 936.278125 1251.054688 941.5125 1250.078125 946.98125 C 1249.53125 949.6375 1248.359375 952.371875 1246.796875 955.457813 Z M 1241.953125 965.41875 " transform="matrix(0.1,0,0,-0.1,0,135.62)"/>
<path style=" stroke:none;fill-rule:nonzero;fill:rgb(100%,100%,100%);fill-opacity:1;" d="M 124.851563 54.054688 L 122.796875 54.648438 L 122.734375 54.425781 L 123.097656 53.875 C 122.578125 53.539063 122.203125 52.917969 122.03125 52.328125 C 121.527344 50.5625 122.9375 48.714844 124.605469 48.238281 C 125.90625 47.867188 127.339844 48.203125 128.328125 49.132813 C 128.675781 49.46875 128.917969 49.941406 129.054688 50.402344 C 129.210938 50.960938 129.207031 51.558594 128.972656 52.101563 L 129.511719 52.386719 L 129.574219 52.605469 L 127.644531 53.160156 L 127.554688 52.867188 C 128.605469 52.40625 129.078125 51.445313 128.796875 50.464844 C 128.613281 49.820313 128.378906 49.53125 127.738281 49.335938 C 126.878906 49.074219 125.746094 49.503906 124.9375 49.738281 C 124.363281 49.902344 123.574219 50.105469 122.980469 50.480469 C 122.394531 50.855469 122.097656 51.453125 122.273438 52.226563 C 122.570313 53.472656 123.601563 53.792969 124.765625 53.777344 L 124.851563 54.054688 "/>
<path style="fill:none;stroke-width:2.01;stroke-linecap:butt;stroke-linejoin:miter;stroke:rgb(100%,100%,100%);stroke-opacity:1;stroke-miterlimit:4;" d="M 1248.515625 815.653125 L 1227.96875 809.715625 L 1227.34375 811.942188 L 1230.976563 817.45 C 1225.78125 820.809375 1222.03125 827.020313 1220.3125 832.91875 C 1215.273438 850.575 1229.375 869.051563 1246.054688 873.817188 C 1259.0625 877.528125 1273.398438 874.16875 1283.28125 864.871875 C 1286.757813 861.5125 1289.179688 856.785938 1290.546875 852.176563 C 1292.109375 846.590625 1292.070313 840.614063 1289.726563 835.184375 L 1295.117188 832.332813 L 1295.742188 830.145313 L 1276.445313 824.598438 L 1275.546875 827.528125 C 1286.054688 832.1375 1290.78125 841.746875 1287.96875 851.551563 C 1286.132813 857.996875 1283.789063 860.8875 1277.382813 862.840625 C 1268.789063 865.457813 1257.460938 861.160938 1249.375 858.817188 C 1243.632813 857.176563 1235.742188 855.145313 1229.804688 851.395313 C 1223.945313 847.645313 1220.976563 841.66875 1222.734375 833.934375 C 1225.703125 821.473438 1236.015625 818.270313 1247.65625 818.426563 Z M 1248.515625 815.653125 " transform="matrix(0.1,0,0,-0.1,0,135.62)"/>
<path style=" stroke:none;fill-rule:nonzero;fill:rgb(100%,100%,100%);fill-opacity:1;" d="M 127.386719 60.753906 L 124.210938 61.03125 L 124.300781 62.058594 L 124.039063 62.082031 L 123.742188 58.695313 L 124.003906 58.671875 L 124.09375 59.703125 L 130.507813 59.144531 L 130.421875 58.113281 L 130.679688 58.089844 L 130.976563 61.472656 L 130.714844 61.496094 L 130.628906 60.46875 L 127.644531 60.730469 L 127.890625 63.492188 L 130.867188 63.234375 L 130.777344 62.207031 L 131.035156 62.179688 L 131.335938 65.566406 L 131.074219 65.589844 L 130.984375 64.5625 L 124.566406 65.121094 L 124.652344 66.152344 L 124.394531 66.171875 L 124.101563 62.789063 L 124.359375 62.765625 L 124.453125 63.792969 L 127.628906 63.515625 L 127.386719 60.753906 "/>
<path style="fill:none;stroke-width:2.01;stroke-linecap:butt;stroke-linejoin:miter;stroke:rgb(100%,100%,100%);stroke-opacity:1;stroke-miterlimit:4;" d="M 1273.867188 748.660938 L 1242.109375 745.8875 L 1243.007813 735.614063 L 1240.390625 735.379688 L 1237.421875 769.246875 L 1240.039063 769.48125 L 1240.9375 759.16875 L 1305.078125 764.754688 L 1304.21875 775.067188 L 1306.796875 775.301563 L 1309.765625 741.473438 L 1307.148438 741.239063 L 1306.289063 751.5125 L 1276.445313 748.895313 L 1278.90625 721.278125 L 1308.671875 723.85625 L 1307.773438 734.129688 L 1310.351563 734.403125 L 1313.359375 700.535938 L 1310.742188 700.301563 L 1309.84375 710.575 L 1245.664063 704.989063 L 1246.523438 694.676563 L 1243.945313 694.48125 L 1241.015625 728.309375 L 1243.59375 728.54375 L 1244.53125 718.270313 L 1276.289063 721.04375 Z M 1273.867188 748.660938 " transform="matrix(0.1,0,0,-0.1,0,135.62)"/>
<path style=" stroke:none;fill-rule:nonzero;fill:rgb(100%,100%,100%);fill-opacity:1;" d="M 123.730469 75.835938 L 123.757813 75.523438 L 130.742188 71.699219 L 124.535156 71.152344 L 124.445313 72.167969 L 124.1875 72.148438 L 124.394531 69.78125 L 124.652344 69.800781 L 124.566406 70.824219 L 130.984375 71.382813 L 131.070313 70.363281 L 131.332031 70.390625 L 131.097656 73.046875 L 126.289063 75.722656 L 130.570313 76.09375 L 130.65625 75.101563 L 130.921875 75.121094 L 130.714844 77.488281 L 130.449219 77.464844 L 130.542969 76.429688 L 123.730469 75.835938 "/>
<path style="fill:none;stroke-width:2.01;stroke-linecap:butt;stroke-linejoin:miter;stroke:rgb(100%,100%,100%);stroke-opacity:1;stroke-miterlimit:4;" d="M 1237.304688 597.840625 L 1237.578125 600.965625 L 1307.421875 639.207813 L 1245.351563 644.676563 L 1244.453125 634.520313 L 1241.875 634.715625 L 1243.945313 658.3875 L 1246.523438 658.192188 L 1245.664063 647.957813 L 1309.84375 642.371875 L 1310.703125 652.567188 L 1313.320313 652.29375 L 1310.976563 625.73125 L 1262.890625 598.973438 L 1305.703125 595.2625 L 1306.5625 605.184375 L 1309.21875 604.989063 L 1307.148438 581.317188 L 1304.492188 581.551563 L 1305.429688 591.903125 Z M 1237.304688 597.840625 " transform="matrix(0.1,0,0,-0.1,0,135.62)"/>
<path style=" stroke:none;fill-rule:nonzero;fill:rgb(100%,100%,100%);fill-opacity:1;" d="M 123.976563 86.09375 C 123.585938 85.980469 123.207031 85.863281 122.882813 85.671875 C 122.246094 85.292969 121.882813 84.742188 122.152344 83.792969 C 122.425781 82.851563 123.027344 82.570313 123.769531 82.585938 C 124.148438 82.597656 124.53125 82.683594 124.925781 82.796875 L 127.105469 83.425781 C 127.472656 83.527344 127.789063 83.683594 128.066406 83.863281 C 128.628906 84.21875 128.898438 84.761719 128.644531 85.65625 C 128.394531 86.535156 127.875 86.835938 127.210938 86.859375 C 126.878906 86.871094 126.519531 86.824219 126.164063 86.722656 Z M 121.90625 83.71875 C 121.335938 85.707031 122.84375 87.359375 124.679688 87.890625 C 126.335938 88.363281 128.414063 87.402344 128.898438 85.726563 C 129.378906 84.050781 128.121094 82.117188 126.46875 81.648438 C 124.632813 81.121094 122.472656 81.738281 121.90625 83.71875 "/>
<path style="fill:none;stroke-width:2.01;stroke-linecap:butt;stroke-linejoin:miter;stroke:rgb(100%,100%,100%);stroke-opacity:1;stroke-miterlimit:4;" d="M 1239.765625 495.2625 C 1235.859375 496.395313 1232.070313 497.567188 1228.828125 499.48125 C 1222.460938 503.270313 1218.828125 508.778125 1221.523438 518.270313 C 1224.257813 527.684375 1230.273438 530.496875 1237.695313 530.340625 C 1241.484375 530.223438 1245.3125 529.364063 1249.257813 528.23125 L 1271.054688 521.942188 C 1274.726563 520.926563 1277.890625 519.364063 1280.664063 517.567188 C 1286.289063 514.0125 1288.984375 508.582813 1286.445313 499.6375 C 1283.945313 490.848438 1278.75 487.840625 1272.109375 487.60625 C 1268.789063 487.489063 1265.195313 487.957813 1261.640625 488.973438 Z M 1219.0625 519.0125 C 1213.359375 499.129688 1228.4375 482.60625 1246.796875 477.29375 C 1263.359375 472.567188 1284.140625 482.176563 1288.984375 498.934375 C 1293.789063 515.692188 1281.210938 535.028125 1264.6875 539.715625 C 1246.328125 544.989063 1224.726563 538.817188 1219.0625 519.0125 Z M 1219.0625 519.0125 " transform="matrix(0.1,0,0,-0.1,0,135.62)"/>
<path style=" stroke:none;fill-rule:nonzero;fill:rgb(100%,100%,100%);fill-opacity:1;" d="M 119.648438 90.371094 L 119.886719 90.484375 L 119.4375 91.410156 L 125.222656 94.234375 L 125.675781 93.308594 L 125.90625 93.421875 L 124.394531 96.523438 L 124.164063 96.410156 L 124.636719 95.433594 L 118.851563 92.609375 L 118.246094 93.839844 C 117.667969 95.027344 118.261719 95.839844 119.316406 96.402344 L 119.175781 96.691406 L 117.113281 95.570313 L 119.648438 90.371094 "/>
<path style="fill:none;stroke-width:2.01;stroke-linecap:butt;stroke-linejoin:miter;stroke:rgb(100%,100%,100%);stroke-opacity:1;stroke-miterlimit:4;" d="M 1196.484375 452.489063 L 1198.867188 451.35625 L 1194.375 442.098438 L 1252.226563 413.85625 L 1256.757813 423.114063 L 1259.0625 421.98125 L 1243.945313 390.965625 L 1241.640625 392.098438 L 1246.367188 401.864063 L 1188.515625 430.10625 L 1182.460938 417.801563 C 1176.679688 405.926563 1182.617188 397.801563 1193.164063 392.176563 L 1191.757813 389.285938 L 1171.132813 400.496875 Z M 1196.484375 452.489063 " transform="matrix(0.1,0,0,-0.1,0,135.62)"/>
<path style=" stroke:none;fill-rule:nonzero;fill:rgb(100%,100%,100%);fill-opacity:1;" d="M 114.003906 104.433594 C 113.679688 104.1875 113.367188 103.941406 113.132813 103.648438 C 112.675781 103.0625 112.527344 102.421875 113.125 101.628906 C 113.71875 100.847656 114.382813 100.800781 115.066406 101.082031 C 115.414063 101.226563 115.742188 101.449219 116.066406 101.695313 L 117.882813 103.0625 C 118.183594 103.285156 118.429688 103.550781 118.621094 103.8125 C 119.019531 104.34375 119.082031 104.957031 118.523438 105.699219 C 117.976563 106.425781 117.378906 106.519531 116.746094 106.300781 C 116.4375 106.199219 116.117188 106.027344 115.820313 105.800781 Z M 112.917969 101.472656 C 111.675781 103.121094 112.488281 105.214844 114.019531 106.359375 C 115.390625 107.390625 117.679688 107.242188 118.730469 105.851563 C 119.777344 104.464844 119.300781 102.207031 117.925781 101.171875 C 116.398438 100.023438 114.160156 99.828125 112.917969 101.472656 "/>
<path style="fill:none;stroke-width:2.01;stroke-linecap:butt;stroke-linejoin:miter;stroke:rgb(100%,100%,100%);stroke-opacity:1;stroke-miterlimit:4;" d="M 1140.039063 311.864063 C 1136.796875 314.325 1133.671875 316.785938 1131.328125 319.715625 C 1126.757813 325.575 1125.273438 331.98125 1131.25 339.910938 C 1137.1875 347.723438 1143.828125 348.192188 1150.664063 345.379688 C 1154.140625 343.934375 1157.421875 341.707813 1160.664063 339.246875 L 1178.828125 325.575 C 1181.835938 323.348438 1184.296875 320.692188 1186.210938 318.075 C 1190.195313 312.7625 1190.820313 306.629688 1185.234375 299.207813 C 1179.765625 291.942188 1173.789063 291.004688 1167.460938 293.192188 C 1164.375 294.207813 1161.171875 295.926563 1158.203125 298.192188 Z M 1129.179688 341.473438 C 1116.757813 324.989063 1124.882813 304.051563 1140.195313 292.60625 C 1153.90625 282.29375 1176.796875 283.778125 1187.304688 297.684375 C 1197.773438 311.551563 1193.007813 334.129688 1179.257813 344.48125 C 1163.984375 355.965625 1141.601563 357.91875 1129.179688 341.473438 Z M 1129.179688 341.473438 " transform="matrix(0.1,0,0,-0.1,0,135.62)"/>
<path style=" stroke:none;fill-rule:nonzero;fill:rgb(100%,100%,100%);fill-opacity:1;" d="M 107.8125 114.507813 C 108.605469 115.035156 109.695313 115.289063 110.515625 114.519531 C 111.9375 113.199219 110.652344 111.960938 109.605469 110.839844 C 108.671875 109.832031 107.40625 108.1875 106.007813 109.488281 C 104.949219 110.476563 105.820313 111.164063 106.554688 111.949219 L 107.320313 111.230469 L 107.496094 111.421875 L 105.113281 113.648438 L 104.933594 113.460938 L 105.472656 112.960938 C 104.441406 111.828125 104.667969 110.386719 105.75 109.378906 C 106.609375 108.574219 107.382813 108.394531 108.539063 108.535156 C 109.382813 108.640625 110.113281 109.136719 110.679688 109.738281 C 111.335938 110.441406 111.644531 111.300781 111.703125 112.261719 C 111.753906 113.203125 111.480469 113.980469 110.785156 114.628906 C 110.253906 115.121094 109.800781 115.316406 109.136719 115.421875 L 109.132813 116.027344 L 108.960938 116.183594 L 107.589844 114.710938 L 107.8125 114.507813 "/>
<path style="fill:none;stroke-width:2.01;stroke-linecap:butt;stroke-linejoin:miter;stroke:rgb(100%,100%,100%);stroke-opacity:1;stroke-miterlimit:4;" d="M 1078.125 211.121875 C 1086.054688 205.848438 1096.953125 203.309375 1105.15625 211.004688 C 1119.375 224.207813 1106.523438 236.590625 1096.054688 247.801563 C 1086.71875 257.879688 1074.0625 274.325 1060.078125 261.317188 C 1049.492188 251.434375 1058.203125 244.559375 1065.546875 236.707813 L 1073.203125 243.895313 L 1074.960938 241.98125 L 1051.132813 219.715625 L 1049.335938 221.590625 L 1054.726563 226.590625 C 1044.414063 237.91875 1046.679688 252.332813 1057.5 262.410938 C 1066.09375 270.457813 1073.828125 272.254688 1085.390625 270.848438 C 1093.828125 269.79375 1101.132813 264.832813 1106.796875 258.817188 C 1113.359375 251.785938 1116.445313 243.192188 1117.03125 233.582813 C 1117.539063 224.16875 1114.804688 216.395313 1107.851563 209.910938 C 1102.539063 204.989063 1098.007813 203.035938 1091.367188 201.98125 L 1091.328125 195.926563 L 1089.609375 194.364063 L 1075.898438 209.090625 Z M 1078.125 211.121875 " transform="matrix(0.1,0,0,-0.1,0,135.62)"/>
<path style=" stroke:none;fill-rule:nonzero;fill:rgb(100%,100%,100%);fill-opacity:1;" d="M 99.070313 114.769531 L 99.207031 114.984375 L 98.273438 115.570313 L 99.808594 118.027344 L 103.546875 119.875 L 104.1875 119.472656 L 104.332031 119.695313 L 101.449219 121.488281 L 101.316406 121.265625 L 102.226563 120.699219 L 99.128906 119.101563 L 99.292969 122.53125 L 100.210938 121.957031 L 100.351563 122.175781 L 98.449219 123.367188 L 98.308594 123.144531 L 99.019531 122.703125 L 98.800781 118.933594 L 97.144531 116.277344 L 96.167969 116.886719 L 96.03125 116.664063 L 99.070313 114.769531 "/>
<path style="fill:none;stroke-width:2.01;stroke-linecap:butt;stroke-linejoin:miter;stroke:rgb(100%,100%,100%);stroke-opacity:1;stroke-miterlimit:4;" d="M 990.703125 208.504688 L 992.070313 206.35625 L 982.734375 200.496875 L 998.085938 175.926563 L 1035.46875 157.45 L 1041.875 161.473438 L 1043.320313 159.246875 L 1014.492188 141.317188 L 1013.164063 143.54375 L 1022.265625 149.207813 L 991.289063 165.184375 L 992.929688 130.8875 L 1002.109375 136.629688 L 1003.515625 134.442188 L 984.492188 122.528125 L 983.085938 124.754688 L 990.195313 129.16875 L 988.007813 166.864063 L 971.445313 193.426563 L 961.679688 187.332813 L 960.3125 189.559375 Z M 990.703125 208.504688 " transform="matrix(0.1,0,0,-0.1,0,135.62)"/>
<path style=" stroke:none;fill-rule:nonzero;fill:rgb(100%,100%,100%);fill-opacity:1;" d="M 54.261719 122.78125 C 54.382813 122.296875 54.277344 122.296875 53.601563 122.128906 L 52.96875 121.972656 L 53.039063 121.691406 L 53.695313 121.855469 C 54.34375 122.015625 55.027344 122.101563 55.6875 122.21875 L 53.953125 129.1875 L 55.253906 129.515625 L 55.183594 129.792969 L 51.332031 128.832031 L 51.40625 128.550781 L 52.738281 128.886719 L 54.261719 122.78125 "/>
<path style="fill:none;stroke-width:2.01;stroke-linecap:butt;stroke-linejoin:miter;stroke:rgb(100%,100%,100%);stroke-opacity:1;stroke-miterlimit:4;" d="M 542.617188 128.3875 C 543.828125 133.23125 542.773438 133.23125 536.015625 134.910938 L 529.6875 136.473438 L 530.390625 139.285938 L 536.953125 137.645313 C 543.4375 136.04375 550.273438 135.184375 556.875 134.0125 L 539.53125 64.325 L 552.539063 61.04375 L 551.835938 58.270313 L 513.320313 67.879688 L 514.0625 70.692188 L 527.382813 67.332813 Z M 542.617188 128.3875 " transform="matrix(0.1,0,0,-0.1,0,135.62)"/>
<path style=" stroke:none;fill-rule:nonzero;fill:rgb(100%,100%,100%);fill-opacity:1;" d="M 64.503906 125.382813 C 64.441406 126.085938 64.304688 126.902344 63.410156 126.824219 C 62.808594 126.769531 62.496094 126.484375 62.613281 125.21875 C 62.675781 124.480469 62.757813 123.566406 63.691406 123.648438 C 64.359375 123.710938 64.632813 123.929688 64.503906 125.382813 M 63.789063 127.039063 C 64.730469 126.882813 65.757813 126.515625 65.851563 125.421875 C 65.964844 124.140625 64.796875 123.503906 63.714844 123.40625 C 62.476563 123.296875 61.386719 123.785156 61.28125 125.019531 C 61.183594 126.152344 62.128906 126.664063 62.96875 126.96875 L 62.96875 126.992188 C 62.03125 127.132813 60.835938 127.609375 60.726563 128.824219 C 60.617188 130.03125 61.546875 130.894531 63.046875 131.023438 C 64.164063 131.121094 65.597656 130.722656 65.722656 129.257813 C 65.828125 128.070313 64.824219 127.316406 63.789063 127.066406 Z M 64.363281 129.089844 C 64.25 130.417969 63.898438 130.84375 63.066406 130.769531 C 62.003906 130.671875 62.019531 129.757813 62.09375 128.894531 C 62.15625 128.1875 62.367188 127.089844 63.386719 127.179688 C 64.402344 127.269531 64.453125 128.121094 64.363281 129.089844 "/>
<path style="fill:none;stroke-width:2.01;stroke-linecap:butt;stroke-linejoin:miter;stroke:rgb(100%,100%,100%);stroke-opacity:1;stroke-miterlimit:4;" d="M 645.039063 102.371875 C 644.414063 95.340625 643.046875 87.176563 634.101563 87.957813 C 628.085938 88.504688 624.960938 91.35625 626.132813 104.0125 C 626.757813 111.395313 627.578125 120.535938 636.914063 119.715625 C 643.59375 119.090625 646.328125 116.903125 645.039063 102.371875 Z M 637.890625 85.809375 C 647.304688 87.371875 657.578125 91.04375 658.515625 101.98125 C 659.648438 114.79375 647.96875 121.160938 637.148438 122.1375 C 624.765625 123.23125 613.867188 118.348438 612.8125 106.004688 C 611.835938 94.676563 621.289063 89.559375 629.6875 86.5125 L 629.6875 86.278125 C 620.3125 84.871875 608.359375 80.10625 607.265625 67.957813 C 606.171875 55.8875 615.46875 47.254688 630.46875 45.965625 C 641.640625 44.989063 655.976563 48.973438 657.226563 63.621875 C 658.28125 75.496875 648.242188 83.035938 637.890625 85.535938 Z M 643.632813 65.301563 C 642.5 52.020313 638.984375 47.7625 630.664063 48.504688 C 620.039063 49.48125 620.195313 58.621875 620.9375 67.254688 C 621.5625 74.325 623.671875 85.301563 633.867188 84.403125 C 644.023438 83.504688 644.53125 74.989063 643.632813 65.301563 Z M 643.632813 65.301563 " transform="matrix(0.1,0,0,-0.1,0,135.62)"/>
<path style=" stroke:none;fill-rule:nonzero;fill:rgb(100%,100%,100%);fill-opacity:1;" d="M 73.910156 125.824219 C 73.941406 126.234375 73.957031 126.632813 73.949219 127.050781 C 73.929688 127.410156 73.183594 127.921875 72.839844 127.953125 C 71.808594 128.039063 71.734375 126.730469 71.667969 126.019531 C 71.480469 123.835938 72 123.664063 72.496094 123.617188 C 73.132813 123.5625 73.71875 123.652344 73.910156 125.824219 M 71.222656 131.183594 C 73.59375 130.886719 75.542969 128.710938 75.335938 126.277344 C 75.203125 124.777344 74.203125 123.25 72.535156 123.398438 C 71.21875 123.515625 70.164063 124.742188 70.277344 126.054688 C 70.398438 127.488281 71.488281 128.355469 72.660156 128.253906 C 73.183594 128.210938 73.617188 127.941406 73.992188 127.570313 C 73.953125 129.328125 72.890625 130.515625 71.207031 130.929688 L 71.222656 131.183594 "/>
<path style="fill:none;stroke-width:2.01;stroke-linecap:butt;stroke-linejoin:miter;stroke:rgb(100%,100%,100%);stroke-opacity:1;stroke-miterlimit:4;" d="M 739.101563 97.957813 C 739.414063 93.85625 739.570313 89.871875 739.492188 85.692188 C 739.296875 82.098438 731.835938 76.98125 728.398438 76.66875 C 718.085938 75.809375 717.34375 88.895313 716.679688 96.004688 C 714.804688 117.840625 720 119.559375 724.960938 120.028125 C 731.328125 120.575 737.1875 119.676563 739.101563 97.957813 Z M 712.226563 44.364063 C 735.9375 47.332813 755.429688 69.090625 753.359375 93.426563 C 752.03125 108.426563 742.03125 123.7 725.351563 122.215625 C 712.1875 121.04375 701.640625 108.778125 702.773438 95.653125 C 703.984375 81.317188 714.882813 72.645313 726.601563 73.660938 C 731.835938 74.090625 736.171875 76.785938 739.921875 80.496875 C 739.53125 62.91875 728.90625 51.04375 712.070313 46.903125 Z M 712.226563 44.364063 " transform="matrix(0.1,0,0,-0.1,0,135.62)"/>
<path style=" stroke:none;fill-rule:nonzero;fill:rgb(100%,100%,100%);fill-opacity:1;" d="M 80.851563 124.707031 C 80.402344 122.882813 80.882813 122.402344 81.375 122.28125 C 81.867188 122.15625 82.519531 122.351563 82.980469 124.171875 L 83.589844 126.621094 C 83.785156 127.410156 84.226563 128.890625 83.089844 129.171875 C 81.957031 129.457031 81.660156 127.941406 81.464844 127.152344 Z M 79.789063 126.292969 C 80.425781 128.832031 82.113281 129.714844 83.160156 129.453125 C 84.207031 129.191406 85.292969 127.617188 84.65625 125.082031 C 84.222656 123.316406 82.652344 121.703125 81.3125 122.035156 C 79.972656 122.367188 79.351563 124.53125 79.789063 126.292969 "/>
<path style="fill:none;stroke-width:2.01;stroke-linecap:butt;stroke-linejoin:miter;stroke:rgb(100%,100%,100%);stroke-opacity:1;stroke-miterlimit:4;" d="M 808.515625 109.129688 C 804.023438 127.371875 808.828125 132.176563 813.75 133.3875 C 818.671875 134.6375 825.195313 132.684375 829.804688 114.48125 L 835.898438 89.989063 C 837.851563 82.098438 842.265625 67.29375 830.898438 64.48125 C 819.570313 61.629688 816.601563 76.785938 814.648438 84.676563 Z M 797.890625 93.270313 C 804.257813 67.879688 821.132813 59.051563 831.601563 61.66875 C 842.070313 64.285938 852.929688 80.028125 846.5625 105.379688 C 842.226563 123.035938 826.523438 139.16875 813.125 135.848438 C 799.726563 132.528125 793.515625 110.8875 797.890625 93.270313 Z M 797.890625 93.270313 " transform="matrix(0.1,0,0,-0.1,0,135.62)"/>
</g>
</svg>
