
        <svg xmlns="http://www.w3.org/2000/svg" xmlns:xlink="http://www.w3.org/1999/xlink" version="1.1" width="3152.820074683557" 
        height="867.770459711525" viewBox="0 0 3152.820074683557 867.770459711525">
			
			<g transform="scale(7.6410037341778425) translate(10, 10)">
				<defs id="SvgjsDefs25340"></defs><g id="SvgjsG25341" featureKey="symbolGroupContainer" transform="matrix(0.8834405728495582,0,0,0.8834405728495582,0.0221629072704629,0.000007482963022255319)" fill="#222831"><path xmlns="http://www.w3.org/2000/svg" d="M101.3 44.9l-.5-2.1a48.1 48.1 0 0 0-1.3-6.1c-.3-1.1-.7-2.2-1.1-3.3l-.6-1.6-.7-1.6A50.9 50.9 0 0 0 78.7 8.5a50.5 50.5 0 0 0-20.6-8 55.7 55.7 0 0 0-7.4-.5A50.7 50.7 0 0 0 4.3 30.2l-.7 1.6-.6 1.6c-.4 1.1-.8 2.2-1.1 3.3a50.1 50.1 0 0 0-1.4 6.7 51.4 51.4 0 0 0-.2 13.1 53 53 0 0 0 1.4 7.3l.3 1.5a50.6 50.6 0 0 0 5 13.9 52.4 52.4 0 0 0 4 6.3 55.9 55.9 0 0 0 4.9 5.6A50.7 50.7 0 0 0 70 102.5l1.6-.7 1.6-.7 3.1-1.6a50.1 50.1 0 0 0 5.7-3.6 51.5 51.5 0 0 0 9.4-9.1 50.6 50.6 0 0 0 6.5-10.6 51.7 51.7 0 0 0 3.5-11.1 51.1 51.1 0 0 0-.1-20.2zm-.8-1.5a52.2 52.2 0 0 1 .2 13.1 50.3 50.3 0 0 1-2.9 12 51.5 51.5 0 0 1-5.3 10.3l-.3.4a45.4 45.4 0 0 0 2.8-5.1c.5-1 .8-2 1.2-3s.7-2 1-3a46.3 46.3 0 0 0 1.2-6.1c.1-1 .3-2 .3-3.1s.1-1 .1-1.5v-1.5c0-1 0-2-.1-3s-.1-2-.3-3a46.5 46.5 0 0 0-2.7-11.1 47.5 47.5 0 0 0-4.9-9.5 47 47 0 0 0-10.2-10.9 46.8 46.8 0 0 0-53.8-7.1l4.1-2.1a51.6 51.6 0 0 1 11-3.6 50.9 50.9 0 0 1 20.1.2 50 50 0 0 1 14.6 5.5 48.2 48.2 0 0 1 8.3 5.7l2 1.8.7.6.6.7 1.8 2a48.1 48.1 0 0 1 5.8 8.2 50.6 50.6 0 0 1 4.1 9.7c.3 1.1.5 2.3.6 3.4zM2.3 65.2A50.7 50.7 0 0 1 3 42.3l-.3 1.4A47 47 0 0 0 5 69.8c.4 1 .8 2 1.3 3s.9 1.9 1.5 2.8a46.3 46.3 0 0 0 3.4 5.3l1.9 2.4 1 1.2 1 1.1 2.2 2.1 2.3 1.9 2.5 1.8a45.4 45.4 0 0 0 4.1 3 47.3 47.3 0 0 0 6.9 3.7A49.3 49.3 0 0 1 23 93 51 51 0 0 1 8.7 78.8a51.6 51.6 0 0 1-5.3-10.3q-.5-1.4-1-2.9zm75.2 28.2a45.9 45.9 0 0 1-12 5.6 47.2 47.2 0 0 1-6.6 1.4 50.5 50.5 0 0 1-6.7.5A45.7 45.7 0 0 1 35 97.5l4.5 1.1a47.1 47.1 0 0 0 18.6-.2 47.4 47.4 0 0 0 13.4-5.1A44.2 44.2 0 0 0 79 88l1.8-1.6.6-.6.6-.6 1.7-1.8a44.3 44.3 0 0 0 5.4-7.5 47.8 47.8 0 0 0 5.2-13.4 47.2 47.2 0 0 0 .3-18.7 46 46 0 0 0-9.1-20.1c-.9-1.1-1.8-2.2-2.8-3.3a46.2 46.2 0 0 1 7.9 9.1 47.1 47.1 0 0 1 4.7 9.5 45.9 45.9 0 0 1 2.6 11c.1 1 .2 1.9.2 2.9s.1 2 0 3v1.5c0 .5-.1 1-.1 1.5s-.2 2-.3 3a45.5 45.5 0 0 1-1.3 6c-.3 1-.6 2-1 3s-.7 2-1.2 2.9a46 46 0 0 1-16.7 19.6zm-9.3-81.6l2.5 1.3a44.9 44.9 0 0 1 5.1 3.3l2.3 1.9 1.1 1 1.1 1 2.1 2.1 1.9 2.2a45.5 45.5 0 0 1 5.9 9.5 48.1 48.1 0 0 1 3.3 10 46.3 46.3 0 0 1 .1 18.3 45.4 45.4 0 0 1-10.1 20.9l-1.6 1.8-.6.6-.6.6-1.8 1.6a44.1 44.1 0 0 1-7.5 5.3 44.6 44.6 0 0 1-13.4 5 46.4 46.4 0 0 1-18.4 0 47 47 0 0 1-9.4-3l-3.2-2a46.2 46.2 0 0 1-16.5-19.5c-.5-.9-.8-1.9-1.2-2.9s-.7-2-.9-3a45 45 0 0 1-1.3-6c-.1-1-.3-2-.3-3s-.1-1-.1-1.5v-4.4c0-1 .1-1.9.2-2.9a45.6 45.6 0 0 1 2.5-10.9 48.1 48.1 0 0 1 4.7-9.4 46.3 46.3 0 0 1 12.9-13 45.4 45.4 0 0 1 22-7.6h6.5a44 44 0 0 1 9.1 1.6zm-3.6-1.3a44.2 44.2 0 0 0-9.1-1.6h-6.6a44.2 44.2 0 0 0-9.1 1.5 47.9 47.9 0 0 0-13.1 5.8 47.2 47.2 0 0 0-13.4 13 46.6 46.6 0 0 0 3.2 56.7l-.8-.8-1-1.1-1-1.1-1.9-2.4a45.4 45.4 0 0 1-3.3-5.2c-.5-.9-1-1.8-1.4-2.8s-.9-1.9-1.2-2.9a45.9 45.9 0 0 1 2.3-38.2 47.5 47.5 0 0 1 3.6-5.7 50.6 50.6 0 0 1 4.4-5.1A45.6 45.6 0 0 1 39.6 8.3 46.2 46.2 0 0 1 65 10.4l1.5.6zM.5 56.5a51.5 51.5 0 0 1 .2-13.1 50 50 0 0 1 1.4-6.6c.3-1.1.7-2.2 1.1-3.3l.6-1.6.7-1.6a50.4 50.4 0 0 1 92.2 0l.7 1.6.6 1.6c.4 1.1.8 2.2 1 3.3s.4 1.5.6 2.3a50.7 50.7 0 0 0-3.9-8.8 48.3 48.3 0 0 0-5.8-8.2l-1.8-2-.6-.7-.7-.6-2-1.8a48.3 48.3 0 0 0-8.2-5.8 50.1 50.1 0 0 0-14.5-5.6 51.2 51.2 0 0 0-20.2-.1A51.8 51.8 0 0 0 30.8 9 50.5 50.5 0 0 0 7.3 30.7c-.6 1-1.1 2-1.6 3.1L5 35.3l-.7 1.6a51 51 0 0 0-2.9 25 54 54 0 0 1-.9-5.4zm100.8 8.6a51.5 51.5 0 0 1-3.6 11 50.4 50.4 0 0 1-6.5 10.6 51.5 51.5 0 0 1-9.4 9.1 50 50 0 0 1-5.7 3.7l-3 1.5-1.6.7-1.6.7A50.5 50.5 0 0 1 2.7 67.2l.5 1.4a51.8 51.8 0 0 0 5.4 10.3 51.1 51.1 0 0 0 14.3 14.2 49.6 49.6 0 0 0 11.2 5.5l4.4 1.6a48.7 48.7 0 0 0 6.7 1.5 51.5 51.5 0 0 0 6.9.5 46.8 46.8 0 0 0 38.2-19.9c.9-1.1 1.7-2.2 2.5-3.4a51.8 51.8 0 0 0 5.3-10.3 50.6 50.6 0 0 0 2.9-24.7l.2 1a51 51 0 0 1 .1 20.2z"></path></g><g id="SvgjsG25342" featureKey="symbolFeature-0" transform="matrix(-0.9391399969319493,0,0,0.9391399969319493,87.91163346080764,1.9656762548541167)" fill="#0162fe"><g xmlns="http://www.w3.org/2000/svg"><path d="M79.332,13.879H10.583c-0.828,0-1.5,0.671-1.5,1.5v47.608c0,0.829,0.672,1.5,1.5,1.5h22.52   c0.009,0.093,0.025,0.186,0.053,0.278l2.345,7.908l-7.56,5.831c-0.509,0.392-0.711,1.064-0.504,1.671s0.778,1.016,1.42,1.016h32.2   c0.642,0,1.213-0.409,1.42-1.016s0.005-1.28-0.504-1.672l-7.561-5.831l2.345-7.908c0.027-0.093,0.044-0.186,0.053-0.278h22.521   c0.828,0,1.5-0.671,1.5-1.5V15.379C80.832,14.55,80.16,13.879,79.332,13.879z M51.767,74.421l4.89,3.771H33.258l4.89-3.771   c0.491-0.379,0.698-1.02,0.522-1.614l-2.466-8.319h17.507l-2.466,8.319C51.068,73.401,51.275,74.042,51.767,74.421z M77.832,61.487   H12.083V16.879h65.749V61.487z"></path><path d="M22.704,50.375h20.625c0.828,0,1.5-0.671,1.5-1.5V28.25c0-0.829-0.672-1.5-1.5-1.5H22.704c-0.828,0-1.5,0.671-1.5,1.5   v20.625C21.204,49.704,21.876,50.375,22.704,50.375z M41.829,44.944l-6.614-6.614l6.614-6.614V44.944z M40.018,47.375H26.169   l6.924-6.924L40.018,47.375z M33.094,36.209l-6.459-6.459h12.918L33.094,36.209z M30.973,38.33l-6.769,6.768V31.562L30.973,38.33z"></path><path d="M49.997,29.75h17.214c0.828,0,1.5-0.671,1.5-1.5s-0.672-1.5-1.5-1.5H49.997c-0.828,0-1.5,0.671-1.5,1.5   S49.169,29.75,49.997,29.75z"></path><path d="M49.997,36.677h17.214c0.828,0,1.5-0.671,1.5-1.5s-0.672-1.5-1.5-1.5H49.997c-0.828,0-1.5,0.671-1.5,1.5   S49.169,36.677,49.997,36.677z"></path><path d="M49.997,43.604h17.214c0.828,0,1.5-0.671,1.5-1.5s-0.672-1.5-1.5-1.5H49.997c-0.828,0-1.5,0.671-1.5,1.5   S49.169,43.604,49.997,43.604z"></path><path d="M49.997,50.53h17.214c0.828,0,1.5-0.671,1.5-1.5s-0.672-1.5-1.5-1.5H49.997c-0.828,0-1.5,0.671-1.5,1.5   S49.169,50.53,49.997,50.53z"></path></g></g><g id="SvgjsG25343" featureKey="nameFeature-0" transform="matrix(2.9873536078076057,0,0,2.9873536078076057,108.80505969646192,-29.860883987958843)" fill="#30415c"><path d="M12.64 11 l1.44 5.4 l-3.88 0 l0 23.6 l-5.92 0 l0 -23.6 l-3.88 0 l1.52 -5.4 l10.72 0 z M18.305 11 l5.8 0 l0 29 l-5.8 0 l0 -29 z M34.769999999999996 26.32 l0 13.68 l-5.64 0 l0 -29 l6.12 0 l3.16 12.24 l3.16 -12.24 l6.16 0 l0 29 l-5.64 0 l0 -13.68 l-3.68 11.6 z M71.66 24.880000000000003 l4.12 15.12 l-5.88 0 l-2.24 -10.2 l-2.2 10.2 l-5.88 0 l4.12 -15.12 l-3.96 -13.88 l5.76 0 l2.16 10.2 l2.24 -10.2 l5.72 0 z M84.525 40 c-1.68 0 -2.8533 -0.34668 -3.52 -1.04 s-1 -1.84 -1 -3.44 l0 -24.52 l5.92 0 l0 23.28 c0 0.21332 0.03332 0.37332 0.1 0.48 s0.22 0.16 0.46 0.16 l2.04 0 c0.24 0 0.39332 -0.05332 0.46 -0.16 s0.1 -0.26668 0.1 -0.48 l0 -23.28 l5.92 0 l0 24.52 c0 1.6 -0.33332 2.7467 -1 3.44 s-1.84 1.04 -3.52 1.04 l-5.96 0 z"></path></g>
			</g>
		</svg>
	