<svg xmlns="http://www.w3.org/2000/svg" enable-background="new 0 0 24 24" viewBox="0 0 24 24"><path fill="#1B3C4D" d="M0.153,21.462h16.184h0.007l0.129-0.059l0.037-0.113V2.668l-0.047-0.119h-0.001l-0.01,0.001V2.534L16.337,2.5H0.096L0,2.648V21.31v0.003l0.056,0.13L0.153,21.462L0.153,21.462z M1.82,4.47l0.096-0.148h12.639l0.098,0.148v15.035l-0.096,0.153H1.915l-0.096-0.152l-0.002-0.001L1.82,4.47L1.82,4.47z"/><path fill="#DEDEDE" d="M6.993,11.206c-0.72,0-1.245,0.345-1.486,0.998c-0.135,0.4-0.18,0.849-0.18,1.458c0,0.607,0.03,1.083,0.166,1.47c0.225,0.683,0.764,1.026,1.47,1.026c0.569,0,0.948-0.177,1.292-0.513v-3.968C7.918,11.343,7.567,11.206,6.993,11.206L6.993,11.206z"/><path fill="#DEDEDE" d="M8.255,4.322H1.916L1.82,4.47L1.817,19.505l0.002,0.001l0.096,0.152h6.34v-2.09c-0.39,0.139-0.826,0.216-1.308,0.216c-1.59,0-2.79-0.772-3.255-2.185c-0.18-0.492-0.255-1.115-0.255-1.962c0-0.845,0.075-1.471,0.24-1.961c0.465-1.398,1.665-2.186,3.255-2.186c0.486,0,0.927,0.08,1.323,0.226V4.322L8.255,4.322z"/><polygon fill="#183443" points="8.255 2.5 .096 2.5 0 2.648 0 21.31 0 21.313 .056 21.442 .153 21.462 8.255 21.462 8.255 19.658 1.915 19.658 1.819 19.506 1.817 19.505 1.82 4.47 1.916 4.322 8.255 4.322 8.255 2.5"/><path fill="#1B3C4D" d="M6.948,17.783c1.2,0,2.115-0.476,2.745-1.205l-0.015-0.224l-1.037-0.907l-0.224,0.027c-0.39,0.446-0.795,0.684-1.454,0.684c-0.706,0-1.245-0.342-1.47-1.026c-0.136-0.387-0.166-0.862-0.166-1.47c0-0.609,0.045-1.058,0.18-1.458c0.24-0.653,0.766-0.998,1.486-0.998c0.65,0,1.014,0.176,1.396,0.614l0.23,0.035l1.034-0.912l0.02-0.222c-0.635-0.757-1.554-1.233-2.74-1.233c-1.59,0-2.789,0.788-3.255,2.186c-0.165,0.491-0.24,1.116-0.24,1.961c0,0.848,0.075,1.471,0.255,1.962C4.158,17.011,5.358,17.783,6.948,17.783L6.948,17.783z"/><path fill="#183443" d="M5.327,13.66H3.438c0.001,0.836,0.076,1.452,0.255,1.938c0.465,1.413,1.665,2.185,3.255,2.185c1.2,0,2.115-0.476,2.745-1.205l-0.015-0.224l-1.037-0.907l-0.224,0.027c-0.39,0.446-0.795,0.684-1.454,0.684c-0.706,0-1.245-0.342-1.47-1.026c-0.136-0.387-0.166-0.862-0.166-1.47C5.327,13.662,5.327,13.661,5.327,13.66L5.327,13.66z"/><path fill="#1B3C4D" d="M24,19.836c0-0.104-0.057-0.165-0.173-0.165V19.66h-5.595c-0.094,0-0.17,0.058-0.17,0.17v1.501c0,0.093,0.058,0.168,0.173,0.168h5.594c0.096,0,0.172-0.043,0.172-0.162V19.836L24,19.836z"/><path fill="#183443" d="M21.031,19.66h-2.799c-0.094,0-0.17,0.058-0.17,0.17v1.501c0,0.093,0.058,0.168,0.173,0.168h2.797V19.66L21.031,19.66z"/></svg>